<svg width="255" height="44" viewBox="0 0 255 44" fill="none" xmlns="http://www.w3.org/2000/svg">
<path d="M29.7991 0C28.769 0.829809 27.7462 1.9779 26.8427 3.56553C24.9127 6.9757 12.7762 30.9076 6.7947 42.7257C6.42966 43.4418 5.65623 43.8132 4.90086 43.6389C2.09985 42.9834 0 40.3575 0 37.224V6.56648C0 2.94033 2.80462 0 6.26341 0H29.7991Z" fill="#E50914"/>
<path d="M41.7729 6.45662V17.0736C41.7729 17.8883 41.1404 18.5476 40.3634 18.5476H28.6136C27.4751 18.5476 26.745 17.2745 27.2872 16.2211C29.9798 10.9732 31.6315 7.80932 32.2097 6.79384C33.6084 4.33094 35.3721 4.27789 35.4444 4.27789H39.9441C40.9019 4.27789 41.7042 5.05844 41.7621 6.06634C41.7693 6.19517 41.7729 6.324 41.7729 6.45662Z" fill="#E50914"/>
<path d="M41.773 26.5653V37.1141C41.773 40.7402 38.9684 43.6806 35.506 43.6806H14.6701C14.0557 43.6806 13.6617 42.9985 13.9509 42.4302C16.3579 37.6786 19.3938 31.6919 22.3322 25.9249C22.596 25.4096 23.102 25.0913 23.6586 25.0913H40.3598C41.1405 25.0913 41.773 25.7506 41.773 26.5653Z" fill="#E50914"/>
<path d="M71.1348 14.1523C72.6491 15.5883 73.4045 17.7519 73.4045 20.6468V32.571H69.1144V30.0929C68.5578 30.9834 67.7627 31.6616 66.7327 32.1315C65.7026 32.6013 64.463 32.8362 63.0064 32.8362C61.5535 32.8362 60.2813 32.5748 59.1898 32.0557C58.0983 31.5366 57.2562 30.8129 56.6635 29.8845C56.0708 28.9562 55.7744 27.9104 55.7744 26.7396C55.7744 24.9095 56.4214 23.4431 57.7189 22.3405C59.0127 21.2341 61.0548 20.6846 63.8413 20.6846H68.8578V20.3815C68.8578 18.9606 68.453 17.8656 67.6398 17.104C66.8266 16.3424 65.6231 15.9597 64.0256 15.9597C62.9341 15.9597 61.8643 16.1377 60.809 16.4939C59.7536 16.8501 58.8646 17.3465 58.1381 17.9792L56.3563 14.5122C57.3755 13.7014 58.5971 13.0762 60.0283 12.6442C61.4595 12.2123 62.9703 11.9963 64.5714 11.9963C67.4338 12.0001 69.6204 12.7162 71.1348 14.1523ZM66.9893 28.5546C67.8748 28.0089 68.4964 27.2284 68.8614 26.2129V23.8523H64.1738C61.5571 23.8523 60.2488 24.7541 60.2488 26.5577C60.2488 27.4216 60.5741 28.1075 61.2282 28.6152C61.8824 29.1229 62.7896 29.3768 63.9533 29.3768C65.0954 29.373 66.1038 29.1002 66.9893 28.5546Z" fill="#2E2E31"/>
<path d="M81.6919 32.1921C80.1884 31.7601 78.9921 31.2145 78.0922 30.5552L79.8378 26.9366C80.7088 27.5467 81.757 28.0355 82.9822 28.403C84.2038 28.7705 85.4109 28.9562 86.5964 28.9562C89.3106 28.9562 90.666 28.206 90.666 26.7093C90.666 25.9969 90.319 25.5044 89.6287 25.224C88.9384 24.9436 87.8288 24.6783 86.3036 24.4245C84.7061 24.1706 83.4014 23.8788 82.3967 23.5492C81.3919 23.2195 80.5173 22.6398 79.78 21.8138C79.0427 20.9878 78.6704 19.8397 78.6704 18.3657C78.6704 16.4371 79.4403 14.8911 80.9763 13.7355C82.5159 12.5798 84.5941 12.0001 87.2072 12.0001C88.5408 12.0001 89.8745 12.1592 91.2045 12.4775C92.5381 12.7958 93.626 13.2201 94.4753 13.7544L92.7297 17.373C91.0816 16.3575 89.2275 15.8498 87.171 15.8498C85.8374 15.8498 84.8254 16.0582 84.1351 16.4788C83.4448 16.8993 83.0978 17.4488 83.0978 18.1346C83.0978 18.8962 83.4665 19.438 84.2074 19.7525C84.9447 20.0708 86.0904 20.3701 87.6409 20.6467C89.1914 20.9006 90.4636 21.1924 91.4575 21.522C92.4514 21.8517 93.3043 22.4125 94.02 23.1968C94.7356 23.9849 95.0934 25.1027 95.0934 26.5501C95.0934 28.4561 94.3055 29.9793 92.7297 31.1236C91.1539 32.2679 89.0107 32.8362 86.2964 32.8362C84.7315 32.84 83.1918 32.624 81.6919 32.1921Z" fill="#2E2E31"/>
<path d="M101.498 32.1921C99.9942 31.7601 98.7979 31.2145 97.8979 30.5552L99.6436 26.9366C100.515 27.5467 101.563 28.0355 102.788 28.403C104.01 28.7705 105.217 28.9562 106.402 28.9562C109.116 28.9562 110.472 28.206 110.472 26.7093C110.472 25.9969 110.125 25.5044 109.434 25.224C108.744 24.9436 107.635 24.6783 106.109 24.4245C104.512 24.1706 103.207 23.8788 102.202 23.5492C101.198 23.2195 100.323 22.6398 99.5858 21.8138C98.8485 20.9878 98.4762 19.8397 98.4762 18.3657C98.4762 16.4371 99.2461 14.8911 100.782 13.7355C102.322 12.5798 104.4 12.0001 107.013 12.0001C108.347 12.0001 109.68 12.1592 111.01 12.4775C112.344 12.7958 113.432 13.2201 114.281 13.7544L112.535 17.373C110.887 16.3575 109.033 15.8498 106.977 15.8498C105.643 15.8498 104.631 16.0582 103.941 16.4788C103.251 16.8993 102.904 17.4488 102.904 18.1346C102.904 18.8962 103.272 19.438 104.013 19.7525C104.75 20.0708 105.896 20.3701 107.447 20.6467C108.997 20.9006 110.269 21.1924 111.263 21.522C112.257 21.8517 113.11 22.4125 113.826 23.1968C114.541 23.9849 114.899 25.1027 114.899 26.5501C114.899 28.4561 114.111 29.9793 112.535 31.1236C110.96 32.2679 108.816 32.8362 106.102 32.8362C104.537 32.84 102.998 32.624 101.498 32.1921Z" fill="#2E2E31"/>
<path d="M138.091 23.9243H122.865C123.132 25.4248 123.826 26.6108 124.954 27.486C126.081 28.3613 127.48 28.8009 129.15 28.8009C131.282 28.8009 133.039 28.0658 134.419 26.5918L136.855 29.5246C135.984 30.6158 134.882 31.4418 133.548 32.0026C132.215 32.5634 130.715 32.84 129.041 32.84C126.909 32.84 125.03 32.3967 123.407 31.5063C121.784 30.6158 120.53 29.3806 119.645 27.793C118.759 26.2053 118.318 24.4093 118.318 22.4011C118.318 20.4194 118.748 18.6347 119.608 17.0471C120.469 15.4595 121.661 14.2205 123.186 13.3338C124.712 12.4434 126.432 12.0001 128.348 12.0001C130.238 12.0001 131.926 12.4396 133.418 13.3149C134.907 14.1902 136.071 15.4216 136.906 17.0092C137.741 18.5969 138.16 20.4308 138.16 22.5148C138.164 22.8444 138.142 23.3143 138.091 23.9243ZM124.665 17.1608C123.66 18.0626 123.049 19.2637 122.829 20.7604H133.841C133.646 19.2865 133.053 18.0929 132.059 17.1797C131.065 16.2666 129.829 15.8081 128.351 15.8081C126.898 15.8081 125.669 16.259 124.665 17.1608Z" fill="#2E2E31"/>
<path d="M155.281 31.4683C154.746 31.9268 154.099 32.2678 153.336 32.4952C152.574 32.7225 151.768 32.8362 150.918 32.8362C148.786 32.8362 147.138 32.2527 145.974 31.0819C144.81 29.9148 144.228 28.2135 144.228 25.978V16.1908H141.03V12.3789H144.228V7.73352H148.771V12.3827H153.969V16.1945H148.771V25.8719C148.771 26.8608 149.003 27.6186 149.462 28.1377C149.921 28.6606 150.589 28.9183 151.46 28.9183C152.476 28.9183 153.325 28.6379 154.005 28.0809L155.281 31.4683Z" fill="#2E2E31"/>
<path d="M165.129 11.1627V12.3828H170.471V16.1946H165.274V32.5786H160.731V16.1908H157.532V12.379H160.731V11.0831C160.731 8.90058 161.334 7.17655 162.549 5.92236C163.759 4.66439 165.469 4.0354 167.674 4.0354C169.419 4.0354 170.786 4.40294 171.779 5.14181L170.507 8.7225C169.73 8.1655 168.895 7.88511 167.999 7.88511C166.087 7.88511 165.129 8.97637 165.129 11.1627Z" fill="#2E2E31"/>
<path d="M177.739 31.5063C176.164 30.6158 174.935 29.3806 174.049 27.793C173.164 26.2053 172.723 24.4093 172.723 22.4011C172.723 20.3967 173.164 18.6044 174.049 17.0282C174.935 15.4519 176.164 14.2205 177.739 13.3338C179.315 12.4434 181.082 12.0001 183.045 12.0001C185.033 12.0001 186.811 12.4434 188.387 13.3338C189.963 14.2243 191.191 15.4557 192.077 17.0282C192.962 18.6044 193.403 20.3929 193.403 22.4011C193.403 24.4093 192.962 26.2053 192.077 27.793C191.191 29.3806 189.963 30.6196 188.387 31.5063C186.811 32.3967 185.029 32.84 183.045 32.84C181.082 32.84 179.315 32.3967 177.739 31.5063ZM187.19 27.0086C188.282 25.8416 188.828 24.3032 188.828 22.3973C188.828 20.4914 188.282 18.9568 187.19 17.786C186.099 16.619 184.718 16.0316 183.049 16.0316C181.379 16.0316 180.002 16.6152 178.925 17.786C177.848 18.953 177.309 20.4914 177.309 22.3973C177.309 24.3032 177.848 25.8378 178.925 27.0086C180.002 28.1757 181.379 28.763 183.049 28.763C184.718 28.763 186.099 28.1794 187.19 27.0086Z" fill="#2E2E31"/>
<path d="M210.083 12.0001V16.5356C209.696 16.4598 209.345 16.4219 209.027 16.4219C207.26 16.4219 205.879 16.96 204.885 18.0399C203.892 19.1197 203.396 20.6771 203.396 22.708V32.5748H198.853V12.2274H203.18V15.198C204.488 13.0648 206.787 12.0001 210.083 12.0001Z" fill="#2E2E31"/>
<path d="M218.334 31.5063C216.736 30.6158 215.486 29.3806 214.59 27.793C213.693 26.2053 213.245 24.4093 213.245 22.4011C213.245 20.3967 213.693 18.6044 214.59 17.0282C215.486 15.4519 216.729 14.2205 218.316 13.3338C219.902 12.4434 221.713 12.0001 223.748 12.0001C225.66 12.0001 227.34 12.4055 228.783 13.2201C230.225 14.0348 231.309 15.2018 232.035 16.725L228.548 18.8583C227.991 17.9186 227.294 17.2138 226.459 16.744C225.624 16.2741 224.709 16.0392 223.715 16.0392C222.02 16.0392 220.614 16.619 219.501 17.7746C218.385 18.9303 217.828 20.4725 217.828 22.4049C217.828 24.3373 218.381 25.8795 219.483 27.0351C220.586 28.1908 221.995 28.7705 223.715 28.7705C224.709 28.7705 225.624 28.5356 226.459 28.0658C227.294 27.5959 227.991 26.8912 228.548 25.9515L232.035 28.0847C231.284 29.6079 230.188 30.7825 228.746 31.6086C227.304 32.4346 225.638 32.8476 223.748 32.8476C221.738 32.84 219.931 32.3967 218.334 31.5063Z" fill="#2E2E31"/>
<path d="M254.928 23.9243H239.701C239.969 25.4248 240.662 26.6108 241.79 27.486C242.918 28.3613 244.316 28.8009 245.986 28.8009C248.119 28.8009 249.875 28.0658 251.256 26.5918L253.692 29.5246C252.821 30.6158 251.718 31.4418 250.385 32.0026C249.051 32.5634 247.551 32.84 245.878 32.84C243.745 32.84 241.866 32.3967 240.243 31.5063C238.62 30.6158 237.366 29.3806 236.481 27.793C235.595 26.2053 235.154 24.4093 235.154 22.4011C235.154 20.4194 235.585 18.6347 236.445 17.0471C237.305 15.4595 238.498 14.2205 240.023 13.3338C241.548 12.4434 243.268 12.0001 245.184 12.0001C247.074 12.0001 248.762 12.4396 250.255 13.3149C251.744 14.1902 252.907 15.4216 253.742 17.0092C254.577 18.5969 254.996 20.4308 254.996 22.5148C255 22.8444 254.975 23.3143 254.928 23.9243ZM241.501 17.1608C240.496 18.0626 239.885 19.2637 239.665 20.7604H250.677C250.482 19.2865 249.89 18.0929 248.896 17.1797C247.902 16.2666 246.666 15.8081 245.187 15.8081C243.735 15.8081 242.506 16.259 241.501 17.1608Z" fill="#2E2E31"/>
</svg>
