<svg width="123" height="188" viewBox="0 0 123 188" fill="none" xmlns="http://www.w3.org/2000/svg">
<path d="M47.8766 150.257L55.1424 157.522" stroke="#47B59E" stroke-width="2" stroke-miterlimit="10" stroke-linecap="round" stroke-linejoin="round"/>
<path d="M22.972 125.358L36.31 138.693" stroke="#47B59E" stroke-width="2" stroke-miterlimit="10" stroke-linecap="round" stroke-linejoin="round"/>
<path d="M45.5775 126.97L95.8056 177.19" stroke="#47B59E" stroke-width="2" stroke-miterlimit="10" stroke-linecap="round" stroke-linejoin="round"/>
<path d="M19.9712 101.354L30.1502 111.549" stroke="#47B59E" stroke-width="2" stroke-miterlimit="10" stroke-linecap="round" stroke-linejoin="round"/>
<path d="M81.6773 142.079L125.868 186.263" stroke="#DF6C59" stroke-width="2" stroke-miterlimit="10" stroke-linecap="round" stroke-linejoin="round"/>
<path d="M14.9868 75.401L62.1085 122.515" stroke="#DF6C59" stroke-width="2" stroke-miterlimit="10" stroke-linecap="round" stroke-linejoin="round"/>
<path d="M51.9305 91.3503L129.94 169.347" stroke="#47B59E" stroke-width="2" stroke-miterlimit="10" stroke-linecap="round" stroke-linejoin="round"/>
<path d="M19.6729 59.099L36.1875 75.6109" stroke="#47B59E" stroke-width="2" stroke-miterlimit="10" stroke-linecap="round" stroke-linejoin="round"/>
<path d="M116.338 134.762L135.099 153.503" stroke="#47B59E" stroke-width="2" stroke-miterlimit="10" stroke-linecap="round" stroke-linejoin="round"/>
<path d="M1 19.4242L96.63 115.039" stroke="#47B59E" stroke-width="2" stroke-miterlimit="10" stroke-linecap="round" stroke-linejoin="round"/>
<path d="M77.6927 75.1362L171.111 168.54" stroke="#DF6C59" stroke-width="2" stroke-miterlimit="10" stroke-linecap="round" stroke-linejoin="round"/>
<path d="M36.4341 33.8824L58.1434 55.5707" stroke="#DF6C59" stroke-width="2" stroke-miterlimit="10" stroke-linecap="round" stroke-linejoin="round"/>
<path d="M95.8224 72.2777L156.177 132.605" stroke="#47B59E" stroke-width="2" stroke-miterlimit="10" stroke-linecap="round" stroke-linejoin="round"/>
<path d="M34.2227 10.6694L78.8173 55.2567" stroke="#47B59E" stroke-width="2" stroke-miterlimit="10" stroke-linecap="round" stroke-linejoin="round"/>
<path d="M61.4773 16.9333L122.709 78.1553" stroke="#DF6C59" stroke-width="2" stroke-miterlimit="10" stroke-linecap="round" stroke-linejoin="round"/>
<path d="M115.076 49.5348L157.652 92.1042" stroke="#47B59E" stroke-width="2" stroke-miterlimit="10" stroke-linecap="round" stroke-linejoin="round"/>
<path d="M66.5323 1L98.368 32.8305" stroke="#47B59E" stroke-width="2" stroke-miterlimit="10" stroke-linecap="round" stroke-linejoin="round"/>
<path d="M91.9963 5.47333L133.993 47.4637" stroke="#DF6C59" stroke-width="2" stroke-miterlimit="10" stroke-linecap="round" stroke-linejoin="round"/>
</svg>
