<svg width="367" height="368" viewBox="0 0 367 368" fill="none" xmlns="http://www.w3.org/2000/svg">
<ellipse cx="183.5" cy="184" rx="183.5" ry="184" fill="white"/>
<ellipse cx="184" cy="183.5" rx="165" ry="165.5" fill="white"/>
<path d="M348.5 183.5C348.5 274.628 274.849 348.5 184 348.5C93.1506 348.5 19.5 274.628 19.5 183.5C19.5 92.3716 93.1506 18.5 184 18.5C274.849 18.5 348.5 92.3716 348.5 183.5Z" stroke="black" stroke-opacity="0.25"/>
<ellipse cx="184" cy="183.5" rx="145" ry="145.5" fill="url(#paint0_linear_404_5)"/>
<path d="M186.181 144.106C185.566 143.742 184.868 143.551 184.157 143.551C183.446 143.551 182.747 143.742 182.133 144.106L154.219 160.614C152.701 161.515 151.434 162.794 150.535 164.329L150.253 164.808L133.315 155.131L133.76 154.365C133.81 154.275 133.867 154.192 133.923 154.103C135.248 151.888 136.983 149.956 139.032 148.415C139.624 147.968 140.24 147.555 140.877 147.177L173.623 127.739C176.634 125.961 180.051 125.017 183.532 125C187.014 124.983 190.439 125.895 193.467 127.643L234.823 151.575C235.092 151.722 235.317 151.94 235.474 152.206C235.631 152.473 235.714 152.777 235.714 153.088C235.722 153.408 235.645 153.724 235.49 154.003C235.336 154.282 235.109 154.513 234.836 154.671L187.768 182.453C186.943 182.936 186.225 183.588 185.66 184.368L185.365 184.776L167.234 174.467L167.58 173.956C167.674 173.809 167.78 173.669 167.887 173.528C168.444 172.802 169.13 172.187 169.908 171.715L198.977 154.518C199.226 154.37 199.432 154.159 199.575 153.904C199.718 153.65 199.793 153.362 199.792 153.069V153.011C199.782 152.726 199.7 152.448 199.555 152.204C199.41 151.96 199.207 151.756 198.964 151.613L187.837 145.096L186.181 144.106Z" fill="white"/>
<path d="M182.278 203.983C181.915 203.978 181.558 203.88 181.243 203.696L167.305 195.48C166.992 195.291 166.734 195.023 166.553 194.702C166.373 194.381 166.277 194.018 166.275 193.648L166.332 178.079C166.342 177.077 166.556 176.088 166.959 175.174C167.041 174.976 167.129 174.791 167.217 174.619L167.487 174.108L185.598 184.443L185.309 184.941C184.686 186.015 184.352 187.237 184.343 188.484V201.889C184.346 202.261 184.251 202.626 184.067 202.947C183.884 203.268 183.62 203.533 183.301 203.715C182.989 203.893 182.636 203.986 182.278 203.983Z" fill="white"/>
<path d="M183.791 243.895C183.577 243.895 183.37 243.895 183.163 243.895C179.994 243.732 176.909 242.802 174.164 241.182L140.903 221.566C137.892 219.78 135.393 217.224 133.656 214.15C131.918 211.077 131.003 207.594 131 204.049V164.63C131.006 161.594 131.677 158.598 132.964 155.859L133.184 155.393L133.517 154.755L150.455 164.432L150.21 164.918C149.459 166.407 149.065 168.057 149.061 169.731V199.051C149.065 200.899 149.545 202.714 150.452 204.315C151.359 205.917 152.662 207.249 154.232 208.179L178.958 222.67C180.439 223.54 182.107 224.026 183.816 224.087H184.362V243.876L183.791 243.895Z" fill="white"/>
<path d="M183.935 224.106H184.481C186.2 224.044 187.877 223.55 189.364 222.67L215.853 207.088C216.896 206.468 217.761 205.58 218.361 204.514C218.962 203.447 219.276 202.239 219.274 201.01L219.179 185.447C219.176 185.076 219.269 184.71 219.452 184.388C219.634 184.065 219.897 183.799 220.215 183.615L234.21 175.368C234.526 175.18 234.885 175.081 235.251 175.081C235.618 175.081 235.977 175.18 236.293 175.368C236.607 175.552 236.867 175.818 237.047 176.137C237.228 176.456 237.323 176.818 237.322 177.187V204.043C237.314 207.586 236.394 211.066 234.655 214.137C232.915 217.207 230.417 219.762 227.407 221.546L194.146 241.17C192.523 242.123 190.776 242.838 188.956 243.295C187.722 243.608 186.461 243.796 185.191 243.857C184.971 243.857 184.758 243.857 184.563 243.889H183.986L183.935 224.106Z" fill="white"/>
<path d="M131.695 159.307L131.82 158.873C132.12 157.839 132.502 156.831 132.963 155.86L133.207 155.356L133.421 154.947L133.741 154.366L133.935 154.053C135.089 152.123 136.56 150.409 138.284 148.985L138.585 148.729L156.308 159.39L154.218 160.616C152.65 161.554 151.351 162.894 150.453 164.503L150.384 164.625C149.74 165.811 149.325 167.111 149.16 168.455L149.06 169.297L131.695 159.307Z" fill="white"/>
<path d="M166.326 179.21V178.081C166.336 177.079 166.55 176.09 166.953 175.176L167.154 174.704L167.7 173.778L167.932 173.503C168.478 172.79 169.148 172.184 169.909 171.716L173.361 169.673L191.246 180.417L187.77 182.453C186.857 182.992 186.077 183.737 185.492 184.63L185.435 184.726C184.728 185.848 184.349 187.152 184.343 188.486V189.577L166.326 179.21Z" fill="white"/>
<path d="M183.642 243.901L183.121 243.862C181.823 243.8 180.534 243.606 179.274 243.282L178.847 243.167V222.669L179.657 223.065C182.122 224.275 184.959 224.443 187.545 223.531L188.292 223.263V243.479L187.834 243.562C186.952 243.734 186.058 243.841 185.16 243.882L184.432 243.92L183.642 243.901Z" fill="white"/>
<defs>
<linearGradient id="paint0_linear_404_5" x1="75.5" y1="-14" x2="261.5" y2="356.5" gradientUnits="userSpaceOnUse">
<stop stop-color="#BF0404"/>
<stop offset="1" stop-color="#B50000"/>
</linearGradient>
</defs>
</svg>
