<svg width="324" height="80" viewBox="0 0 324 80" fill="none" xmlns="http://www.w3.org/2000/svg">
<path d="M0.468384 23.0677L0.552781 22.7758C0.754222 22.0804 1.01108 21.4028 1.3208 20.7498L1.48537 20.4107L1.62885 20.1359L1.84406 19.7453L1.97488 19.535C2.75075 18.2371 3.73991 17.0843 4.89926 16.1268L5.10181 15.9551L17.0187 23.1235L15.6135 23.9477C14.5589 24.5783 13.6858 25.4798 13.0816 26.5618L13.0352 26.6433C12.6023 27.4408 12.323 28.3149 12.2123 29.2188L12.1448 29.7854L0.468384 23.0677Z" fill="url(#paint0_linear_0_7310)"/>
<path d="M23.7538 36.4525V35.6927C23.7605 35.0191 23.9042 34.3541 24.1758 33.7397L24.3108 33.422L24.6779 32.7996L24.8341 32.615C25.2013 32.1352 25.6518 31.7278 26.1633 31.4131L28.4843 30.0396L40.5109 37.2638L38.1731 38.6331C37.5592 38.9954 37.0352 39.4962 36.6413 40.0968L36.6033 40.1612C36.1275 40.9159 35.8729 41.7929 35.8691 42.6895V43.4235L23.7538 36.4525Z" fill="url(#paint1_linear_0_7310)"/>
<path fill-rule="evenodd" clip-rule="evenodd" d="M37.1053 12.8474C36.6921 12.6027 36.2225 12.4738 35.7444 12.4738C35.2663 12.4738 34.7967 12.6027 34.3835 12.8474L15.6135 23.9478C14.5931 24.5537 13.7408 25.4133 13.1364 26.446L12.9975 26.6815L12.9171 26.8409C12.4121 27.8426 12.1474 28.9517 12.1448 30.0775V49.7928C12.1474 51.0356 12.4698 52.2561 13.0798 53.3329C13.6898 54.4098 14.5662 55.3055 15.622 55.931L32.2483 65.6749C33.244 66.2596 34.3655 66.5868 35.5145 66.6279H35.8816V66.6404H35.9618C37.1176 66.5983 38.2454 66.2665 39.2449 65.6746L57.057 55.1967C57.7584 54.7798 58.3399 54.183 58.7434 53.4659C59.147 52.7488 59.3585 51.9366 59.3568 51.1103L59.2935 40.6452C59.2909 40.3954 59.3541 40.1493 59.4765 39.9327C59.599 39.716 59.7762 39.5367 59.9898 39.4133L69.4002 33.8674C69.6127 33.7411 69.8545 33.6745 70.1007 33.6745C70.3468 33.6745 70.5886 33.7411 70.8012 33.8674C71.0119 33.9917 71.1867 34.1701 71.3082 34.3848C71.4297 34.5996 71.4935 34.843 71.4932 35.0908V53.1492C71.4874 55.5321 70.869 57.8721 69.6994 59.9368C68.5298 62.0015 66.8497 63.7191 64.8258 64.9192L42.4604 78.1142C41.3689 78.7551 40.1941 79.2363 38.9706 79.5436C38.822 79.5813 38.6729 79.6162 38.5232 79.6485V79.6685L38.2152 79.7243C37.6218 79.84 37.021 79.9117 36.4175 79.9389L35.928 79.9647L35.3963 79.9518L35.3362 79.9474H35.0756C32.9446 79.8376 30.87 79.2122 29.0243 78.1231L6.65897 64.9323C4.63429 63.7318 2.95413 62.0126 1.78581 59.9461C0.617496 57.8795 0.00178674 55.5377 0 53.1538V26.6478C0.00395981 24.6064 0.455174 22.5916 1.32082 20.7499L1.46852 20.4366L1.55951 20.2619L1.55706 20.2605L1.5876 20.208L1.69217 20.0073L1.7013 20.0125L1.85667 19.7454C1.88084 19.7024 1.90716 19.6616 1.93411 19.6198L1.93412 19.6198L1.93414 19.6198L1.93415 19.6198C1.94483 19.6032 1.95561 19.5865 1.96639 19.5694C2.85681 18.0801 4.02345 16.7811 5.40137 15.7449C5.7997 15.4445 6.21387 15.1665 6.64201 14.9121L28.6613 1.84153C30.6862 0.646313 32.9835 0.01145 35.3245 0.000153436C37.6656 -0.0111431 39.9687 0.60152 42.0046 1.77715L69.8136 17.8696C69.9946 17.9682 70.1459 18.1149 70.2514 18.2941C70.3569 18.4732 70.4127 18.6781 70.4128 18.8869C70.4183 19.1022 70.3663 19.3149 70.2622 19.5024C70.1582 19.6898 70.006 19.8451 69.822 19.9515L38.1729 38.6323C37.6181 38.9575 37.1353 39.3959 36.7551 39.9201L36.6912 40.0085L36.5188 40.3059C36.0995 41.0278 35.8753 41.8497 35.8689 42.6882V51.7024C35.8709 51.9521 35.8069 52.1977 35.6837 52.4136C35.5605 52.6296 35.3825 52.8079 35.1684 52.93C34.9584 53.0498 34.7214 53.1119 34.4806 53.1103C34.2361 53.1071 33.9965 53.0407 33.7843 52.9172L24.412 47.3927C24.202 47.2655 24.028 47.0852 23.9067 46.8693C23.7855 46.6535 23.7211 46.4094 23.7199 46.1608L23.7579 35.6915C23.7646 35.0178 23.9083 34.3529 24.1799 33.7384C24.2347 33.6053 24.2938 33.4809 24.3529 33.365L24.3975 33.2806L24.3655 33.2624L24.5976 32.919C24.6609 32.8203 24.7326 32.7259 24.8044 32.6314C25.1791 32.1429 25.6398 31.7295 26.1632 31.4124L45.7097 19.8485C45.877 19.7492 46.0158 19.6069 46.112 19.4359C46.2083 19.2649 46.2587 19.0711 46.2582 18.8741V18.8354C46.2509 18.6437 46.196 18.4569 46.0986 18.2925C46.0012 18.1282 45.8645 17.9916 45.7012 17.8954L38.2194 13.5128L37.1053 12.8474Z" fill="#BF0404"/>
<path d="M119.503 58.0256C116.62 58.0528 113.758 57.5316 111.063 56.4889C108.549 55.5154 106.26 54.0232 104.341 52.1063C102.438 50.1912 100.935 47.9048 99.9225 45.3843C98.8336 42.6386 98.2942 39.6996 98.3359 36.7392V36.589C98.3199 33.7531 98.8192 30.9387 99.8086 28.2873C100.747 25.765 102.15 23.4484 103.944 21.4623C105.775 19.4341 108.007 17.8232 110.494 16.7356C112.98 15.648 115.665 15.1084 118.372 15.1524C121.748 15.1524 124.668 15.7662 127.132 16.9939C129.522 18.1601 131.625 19.8539 133.289 21.9517C134.945 24.0682 136.177 26.495 136.914 29.0943C137.7 31.8269 138.094 34.6605 138.083 37.5076C138.083 37.9712 138.083 38.4562 138.045 38.9713C138.007 39.4864 137.982 40.0187 137.935 40.581H109.759C110.322 43.2452 111.467 45.2569 113.194 46.6162C114.921 47.9755 117.075 48.6537 119.655 48.6508C121.416 48.6788 123.165 48.3368 124.79 47.6464C126.514 46.8375 128.097 45.7471 129.474 44.4185L136.045 50.3378C134.165 52.7173 131.792 54.6448 129.095 55.9824C126.377 57.3417 123.18 58.0227 119.503 58.0256ZM126.904 33.2838C126.553 30.6682 125.647 28.5549 124.187 26.9438C122.727 25.3327 120.788 24.5257 118.372 24.5229C115.952 24.5229 114 25.317 112.515 26.9052C111.029 28.4934 110.06 30.6196 109.607 33.2838H126.904Z" fill="white"/>
<path d="M156.287 69.6283C154.398 69.6596 152.514 69.4006 150.7 68.86C149.092 68.3472 147.546 67.6502 146.092 66.7824L149.945 58.3305C150.72 58.8017 151.542 59.1888 152.397 59.4852C153.185 59.7736 154.015 59.9288 154.853 59.9445C155.684 59.9892 156.51 59.7895 157.233 59.3693C157.943 58.8183 158.502 58.0912 158.857 57.2574L142.995 15.9209H155.157L164.373 43.9636L173.209 15.9209H185.143L169.584 58.103C168.942 59.9551 168.133 61.7426 167.166 63.4429C166.41 64.7752 165.455 65.98 164.335 67.0142C163.317 67.9276 162.118 68.6082 160.82 69.0102C159.348 69.4454 157.82 69.6537 156.287 69.6283Z" fill="white"/>
<path d="M211.809 58.0262C208.834 58.054 205.883 57.4927 203.12 56.3736C200.554 55.3324 198.212 53.7928 196.225 51.8408C194.276 49.9102 192.718 47.6106 191.638 45.0716C190.521 42.4387 189.955 39.5985 189.975 36.7313V36.581C189.955 33.7152 190.521 30.8765 191.638 28.2451C192.725 25.701 194.291 23.3973 196.246 21.463C198.253 19.4901 200.612 17.9253 203.196 16.8528C205.977 15.7062 208.955 15.1328 211.956 15.1659C214.93 15.1375 217.881 15.6974 220.645 16.8142C223.217 17.8545 225.565 19.3957 227.557 21.3514C229.5 23.2793 231.053 25.5762 232.127 28.112C233.239 30.74 233.802 33.5742 233.782 36.4351V36.5896C233.802 39.4551 233.238 42.2938 232.123 44.9256C231.039 47.4766 229.473 49.7866 227.515 51.7249C225.51 53.6997 223.15 55.2647 220.565 56.335C217.785 57.4822 214.809 58.057 211.809 58.0262ZM211.956 47.9604C213.474 47.9893 214.981 47.6878 216.374 47.0761C217.626 46.5138 218.746 45.6888 219.662 44.6552C220.579 43.6157 221.284 42.402 221.738 41.0839C222.224 39.6893 222.466 38.2193 222.455 36.7399V36.5896C222.466 35.1069 222.21 33.6347 221.7 32.2457C220.706 29.5376 218.697 27.3411 216.113 26.1375C214.761 25.5144 213.292 25.1994 211.809 25.2146C210.289 25.1861 208.782 25.4876 207.386 26.0988C206.139 26.6656 205.021 27.49 204.103 28.5198C203.186 29.5609 202.481 30.776 202.027 32.0954C201.534 33.4872 201.284 34.9558 201.288 36.4351V36.5896C201.279 38.0708 201.535 39.5413 202.044 40.9293C203.048 43.627 205.048 45.819 207.618 47.0375C208.979 47.6686 210.461 47.9839 211.956 47.9604Z" fill="white"/>
<path d="M242.094 15.9208H253.577V21.8057C254.24 20.9205 254.959 20.0803 255.729 19.2903C256.518 18.4869 257.393 17.7757 258.337 17.1699C259.322 16.5341 260.388 16.0387 261.506 15.6975C262.78 15.3195 264.103 15.1358 265.43 15.1524C269.811 15.1524 273.198 16.5088 275.592 19.2217C277.986 21.9345 279.182 25.6747 279.179 30.4422V57.0899H267.701V34.1852C267.701 31.4237 267.097 29.3419 265.89 27.9397C264.684 26.5375 262.972 25.8349 260.755 25.8321C258.535 25.8321 256.788 26.536 255.501 27.9397C254.214 29.3433 253.577 31.4252 253.577 34.1852V57.0899H242.094V15.9208Z" fill="white"/>
<path d="M300.633 57.871C298.804 57.883 296.984 57.6108 295.235 57.064C293.617 56.5655 292.113 55.7423 290.813 54.643C289.548 53.5597 288.53 52.2092 287.83 50.6854C287.071 48.9856 286.698 47.1344 286.737 45.2683V45.118C286.685 43.1016 287.099 41.1009 287.944 39.276C288.731 37.663 289.889 36.2671 291.319 35.2067C292.865 34.0758 294.608 33.2543 296.455 32.7858C298.614 32.2249 300.835 31.9537 303.063 31.9788C304.877 31.9544 306.689 32.1082 308.473 32.4381C309.997 32.7431 311.498 33.1532 312.967 33.6657V32.9746C312.967 30.5194 312.237 28.6507 310.777 27.3687C309.317 26.0867 307.143 25.4456 304.253 25.4456C302.286 25.4208 300.322 25.6137 298.396 26.0208C296.585 26.4448 294.806 26.9971 293.071 27.6734L290.201 18.7623C292.45 17.7764 294.775 16.9796 297.151 16.38C300.034 15.7113 302.985 15.4 305.941 15.4528C308.695 15.3893 311.441 15.7925 314.065 16.6461C316.147 17.3459 318.045 18.5204 319.614 20.0801C321.152 21.6637 322.293 23.6014 322.939 25.729C323.673 28.1545 324.03 30.6817 323.998 33.2193V57.0897H312.87V52.647C311.447 54.2439 309.726 55.5367 307.806 56.4502C305.848 57.3945 303.457 57.8681 300.633 57.871ZM304.11 49.8011C306.827 49.8011 309.005 49.1358 310.642 47.8051C311.431 47.1955 312.067 46.4041 312.497 45.4959C312.927 44.5878 313.139 43.5888 313.115 42.5812V40.5079C312.03 40.0203 310.899 39.6463 309.739 39.3919C308.438 39.1018 307.109 38.9578 305.777 38.9626C303.309 38.9626 301.37 39.4491 299.958 40.4221C299.276 40.8799 298.724 41.5099 298.354 42.2504C297.984 42.9908 297.81 43.8162 297.848 44.6459V44.8004C297.813 45.5136 297.954 46.2243 298.257 46.8682C298.561 47.512 299.018 48.0686 299.586 48.4876C300.728 49.3576 302.236 49.7925 304.11 49.7925V49.8011Z" fill="white"/>
<defs>
<linearGradient id="paint0_linear_0_7310" x1="6.74756" y1="26.3343" x2="12.8885" y2="15.499" gradientUnits="userSpaceOnUse">
<stop offset="0.2" stop-color="#BA383F"/>
<stop offset="0.56" stop-color="#BA3135"/>
<stop offset="1" stop-color="#BC3135"/>
</linearGradient>
<linearGradient id="paint1_linear_0_7310" x1="1150.34" y1="1363.75" x2="1357.11" y2="894.347" gradientUnits="userSpaceOnUse">
<stop offset="0.2" stop-color="#BA383F"/>
<stop offset="0.56" stop-color="#BA383F"/>
<stop offset="1" stop-color="#BA383F"/>
</linearGradient>
</defs>
</svg>
