<svg width="149" height="37" viewBox="0 0 149 37" fill="none" xmlns="http://www.w3.org/2000/svg">
<path d="M17.0636 5.90821C16.8735 5.79568 16.6576 5.7364 16.4377 5.7364C16.2178 5.7364 16.0019 5.79568 15.8119 5.90821L7.18001 11.013C6.71077 11.2916 6.3188 11.6869 6.04087 12.1618L5.95354 12.3099L0.71582 9.31731L0.853604 9.08043C0.869129 9.05279 0.886594 9.02713 0.90406 8.99949C1.31354 8.31459 1.85005 7.71722 2.48372 7.24066C2.6669 7.10253 2.85737 6.97469 3.05426 6.8577L13.1804 0.846875C14.1116 0.297223 15.168 0.00526557 16.2446 7.05612e-05C17.3212 -0.00512445 18.3804 0.276624 19.3166 0.817265L32.1053 8.21779C32.1885 8.26313 32.2581 8.33059 32.3066 8.41297C32.3551 8.49536 32.3808 8.58959 32.3808 8.68563C32.3834 8.7846 32.3594 8.88242 32.3116 8.96864C32.2637 9.05486 32.1938 9.12624 32.1092 9.17518L17.5545 17.766C17.2994 17.9156 17.0774 18.1172 16.9025 18.3582L16.8113 18.4846L11.2048 15.2965L11.3116 15.1386C11.3407 15.0932 11.3737 15.0498 11.4067 15.0064C11.579 14.7817 11.7909 14.5916 12.0316 14.4458L21.0205 9.1278C21.0974 9.08214 21.1613 9.01672 21.2055 8.93807C21.2498 8.85943 21.273 8.77033 21.2728 8.6797V8.66194C21.2694 8.57375 21.2441 8.48787 21.1993 8.41228C21.1545 8.33669 21.0917 8.27386 21.0166 8.22963L17.5759 6.21418L17.0636 5.90821Z" fill="#BA383F"/>
<path d="M15.8568 24.4244C15.7444 24.4229 15.6342 24.3923 15.5366 24.3355L11.2265 21.795C11.1299 21.7365 11.0499 21.6535 10.9941 21.5543C10.9383 21.455 10.9088 21.3428 10.9082 21.2284L10.9257 16.4139C10.9288 16.1041 10.9948 15.7983 11.1197 15.5157C11.145 15.4545 11.1721 15.3973 11.1993 15.344L11.2827 15.186L16.8834 18.3819L16.7941 18.5359C16.6013 18.8679 16.4982 19.2459 16.4952 19.6315V23.7769C16.4961 23.8917 16.4667 24.0047 16.41 24.104C16.3534 24.2033 16.2715 24.2853 16.1731 24.3414C16.0765 24.3965 15.9675 24.4251 15.8568 24.4244Z" fill="#BA383F"/>
<path d="M16.3245 36.7661C16.2585 36.7661 16.1944 36.7661 16.1304 36.7661C15.1504 36.7156 14.1963 36.428 13.3476 35.9271L3.06229 29.861C2.13119 29.3089 1.35853 28.5183 0.821251 27.568C0.283971 26.6176 0.000821678 25.5407 0 24.4444L0 12.2549C0.00182102 11.3162 0.209323 10.3896 0.607413 9.54267L0.675334 9.39857L0.778187 9.20117L6.01591 12.1938L5.94022 12.3438C5.70799 12.8044 5.58629 13.3145 5.58509 13.8322V22.8987C5.58629 23.4703 5.73453 24.0316 6.01505 24.5268C6.29558 25.022 6.69864 25.4339 7.18416 25.7216L14.8302 30.2025C15.2881 30.4714 15.8038 30.6219 16.3322 30.6408H16.5011V36.7602L16.3245 36.7661Z" fill="#BA383F"/>
<path d="M16.3691 30.6465H16.538C17.0695 30.6271 17.5881 30.4746 18.0478 30.2024L26.2391 25.3839C26.5616 25.1921 26.8291 24.9177 27.0147 24.5879C27.2003 24.2581 27.2975 23.8846 27.2968 23.5046L27.2676 18.692C27.2664 18.5771 27.2955 18.4639 27.3518 18.3643C27.4081 18.2647 27.4896 18.1822 27.5878 18.1255L31.9154 15.5751C32.0132 15.517 32.1243 15.4863 32.2376 15.4863C32.3508 15.4863 32.462 15.517 32.5597 15.5751C32.6566 15.6322 32.737 15.7143 32.7929 15.813C32.8487 15.9118 32.8781 16.0237 32.878 16.1376V24.4423C32.8753 25.5381 32.5909 26.6142 32.053 27.5637C31.5152 28.5132 30.7425 29.3031 29.8118 29.855L19.5265 35.923C19.0246 36.2177 18.4843 36.439 17.9216 36.5804C17.5401 36.6771 17.1501 36.7353 16.7573 36.7541C16.6893 36.7541 16.6234 36.7541 16.5632 36.764H16.3847L16.3691 30.6465Z" fill="#BA383F"/>
<path d="M0.214844 10.6083L0.253656 10.4741C0.346294 10.1543 0.464416 9.84265 0.606848 9.54236L0.682532 9.38641L0.748513 9.26008L0.847484 9.08044L0.907643 8.98372C1.26445 8.38683 1.71933 7.85668 2.25249 7.41636L2.34564 7.3374L7.82594 10.634L7.17971 11.013C6.69473 11.303 6.29319 11.7176 6.01534 12.2152L5.994 12.2527C5.79494 12.6194 5.6665 13.0214 5.61558 13.4371L5.58453 13.6976L0.214844 10.6083Z" fill="url(#paint0_linear_0_23)"/>
<path d="M10.9238 16.7631V16.4137C10.9269 16.1039 10.993 15.7981 11.1179 15.5156L11.18 15.3695L11.3488 15.0832L11.4206 14.9984C11.5895 14.7777 11.7967 14.5904 12.0319 14.4456L13.0993 13.814L18.63 17.1362L17.5549 17.7659C17.2726 17.9326 17.0316 18.1628 16.8505 18.439L16.833 18.4687C16.6142 18.8157 16.4971 19.219 16.4953 19.6313V19.9689L10.9238 16.7631Z" fill="url(#paint1_linear_0_23)"/>
<path d="M16.2785 36.7677L16.1175 36.7558C15.716 36.7367 15.3175 36.6765 14.9279 36.5762L14.7959 36.5406V30.2021L15.0462 30.3245C15.8086 30.6989 16.6857 30.7507 17.4856 30.4686L17.7165 30.3857V36.6374L17.5749 36.663C17.302 36.7162 17.0257 36.7492 16.7482 36.7617L16.523 36.7736L16.2785 36.7677Z" fill="#BA383F"/>
<path d="M54.9556 26.6847C53.6299 26.6972 52.3135 26.4576 51.0744 25.978C49.9183 25.5304 48.8657 24.8441 47.983 23.9626C47.1079 23.0819 46.4168 22.0304 45.9512 20.8713C45.4504 19.6086 45.2023 18.2571 45.2215 16.8957V16.8266C45.2141 15.5224 45.4438 14.2281 45.8988 13.0089C46.3302 11.8489 46.9757 10.7835 47.8006 9.87021C48.6424 8.93747 49.6689 8.19665 50.8125 7.6965C51.9561 7.19636 53.1909 6.94822 54.4355 6.96843C55.988 6.96843 57.3309 7.25071 58.4642 7.81527C59.563 8.35161 60.5303 9.13051 61.2956 10.0952C62.0573 11.0686 62.6237 12.1846 62.9626 13.38C63.324 14.6366 63.505 15.9397 63.5002 17.249C63.5002 17.4622 63.5002 17.6853 63.4827 17.9221C63.4652 18.159 63.4536 18.4038 63.4322 18.6624H50.4747C50.7335 19.8876 51.26 20.8127 52.0544 21.4378C52.8488 22.0629 53.8391 22.3748 55.0255 22.3735C55.8356 22.3864 56.6396 22.2291 57.3872 21.9116C58.18 21.5396 58.9077 21.0381 59.5413 20.4272L62.5628 23.1493C61.6985 24.2436 60.6071 25.13 59.3666 25.7451C58.1169 26.3702 56.6465 26.6834 54.9556 26.6847ZM58.3595 15.3066C58.1977 14.1038 57.7812 13.1319 57.1097 12.391C56.4383 11.6501 55.5469 11.279 54.4355 11.2777C53.3229 11.2777 52.4251 11.6429 51.742 12.3732C51.0589 13.1036 50.6132 14.0814 50.4049 15.3066H58.3595Z" fill="#212024"/>
<path d="M71.8733 32.0205C71.0043 32.0348 70.138 31.9157 69.3039 31.6671C68.5643 31.4313 67.8533 31.1108 67.1848 30.7117L68.9566 26.8249C69.3131 27.0416 69.691 27.2196 70.0841 27.3559C70.4467 27.4885 70.8282 27.5599 71.2135 27.5671C71.5957 27.5877 71.9757 27.4959 72.308 27.3026C72.6346 27.0492 72.8919 26.7148 73.0552 26.3314L65.7604 7.32178H71.3532L75.5915 20.2179L79.6552 7.32178H85.1432L77.9882 26.7203C77.6928 27.572 77.3206 28.394 76.8762 29.1759C76.5284 29.7886 76.0891 30.3427 75.5741 30.8183C75.106 31.2383 74.5547 31.5513 73.9575 31.7362C73.2807 31.9363 72.5781 32.0321 71.8733 32.0205Z" fill="#212024"/>
<path d="M97.4059 26.6846C96.0381 26.6974 94.681 26.4393 93.4101 25.9246C92.2301 25.4458 91.1531 24.7378 90.2392 23.8401C89.3432 22.9523 88.6266 21.8948 88.1297 20.7271C87.6164 19.5163 87.356 18.2102 87.3651 16.8916V16.8225C87.356 15.5046 87.6164 14.1991 88.1297 12.989C88.63 11.8191 89.3498 10.7597 90.2489 9.87011C91.1718 8.96283 92.2567 8.24324 93.4451 7.75004C94.7242 7.22271 96.0936 6.95902 97.4738 6.97426C98.8414 6.96122 100.198 7.21866 101.47 7.73227C102.653 8.21068 103.732 8.91944 104.648 9.81879C105.542 10.7054 106.256 11.7617 106.75 12.9278C107.261 14.1364 107.52 15.4398 107.511 16.7554V16.8265C107.52 18.1443 107.261 19.4497 106.748 20.66C106.249 21.8331 105.529 22.8954 104.629 23.7868C103.707 24.695 102.622 25.4147 101.433 25.9069C100.154 26.4344 98.7855 26.6988 97.4059 26.6846ZM97.4738 22.0556C98.1718 22.0689 98.8646 21.9303 99.5056 21.649C100.081 21.3904 100.596 21.011 101.017 20.5356C101.439 20.0576 101.764 19.4994 101.972 18.8933C102.196 18.252 102.307 17.5759 102.302 16.8956V16.8265C102.307 16.1446 102.189 15.4676 101.955 14.8288C101.497 13.5834 100.573 12.5733 99.3853 12.0198C98.7638 11.7333 98.0882 11.5884 97.4059 11.5954C96.7072 11.5823 96.0139 11.7209 95.3721 12.002C94.7984 12.2627 94.2842 12.6418 93.8623 13.1154C93.4406 13.5941 93.1161 14.153 92.9075 14.7597C92.6808 15.3997 92.5659 16.0751 92.5679 16.7554V16.8265C92.5637 17.5076 92.6815 18.1839 92.9153 18.8222C93.3769 20.0628 94.2968 21.0708 95.4788 21.6312C96.1046 21.9214 96.7861 22.0664 97.4738 22.0556Z" fill="#212024"/>
<path d="M111.334 7.3216H116.614V10.0279C116.919 9.62087 117.249 9.23446 117.604 8.87118C117.967 8.50171 118.369 8.17462 118.803 7.89603C119.256 7.60367 119.747 7.37585 120.26 7.21895C120.847 7.04509 121.455 6.9606 122.065 6.96825C124.08 6.96825 125.637 7.59203 126.738 8.8396C127.839 10.0872 128.389 11.8072 128.388 13.9996V26.2542H123.109V15.721C123.109 14.451 122.832 13.4936 122.277 12.8488C121.722 12.204 120.934 11.8809 119.915 11.8796C118.894 11.8796 118.091 12.2033 117.499 12.8488C116.907 13.4943 116.614 14.4517 116.614 15.721V26.2542H111.334V7.3216Z" fill="#212024"/>
<path d="M138.254 26.6136C137.413 26.6191 136.576 26.4939 135.772 26.2424C135.028 26.0132 134.336 25.6346 133.738 25.1291C133.156 24.6309 132.688 24.0098 132.366 23.3091C132.017 22.5274 131.846 21.6761 131.864 20.8179V20.7488C131.84 19.8215 132.03 18.9014 132.419 18.0622C132.78 17.3204 133.313 16.6785 133.971 16.1908C134.682 15.6708 135.483 15.293 136.333 15.0775C137.326 14.8196 138.347 14.6948 139.372 14.7064C140.206 14.6952 141.039 14.7659 141.86 14.9176C142.56 15.0579 143.251 15.2465 143.926 15.4822V15.1644C143.926 14.0352 143.591 13.1759 142.919 12.5863C142.248 11.9968 141.248 11.702 139.919 11.702C139.014 11.6906 138.111 11.7792 137.225 11.9665C136.393 12.1615 135.574 12.4154 134.776 12.7265L133.457 8.62845C134.491 8.17508 135.56 7.80867 136.653 7.53288C137.979 7.22541 139.336 7.08224 140.695 7.1065C141.962 7.07729 143.224 7.26275 144.431 7.65527C145.389 7.97708 146.262 8.51722 146.983 9.23447C147.69 9.96274 148.215 10.8539 148.512 11.8323C148.85 12.9477 149.014 14.1099 148.999 15.2769V26.2543H143.882V24.2112C143.227 24.9455 142.436 25.5401 141.553 25.9602C140.653 26.3944 139.553 26.6122 138.254 26.6136ZM139.853 22.9024C141.103 22.9024 142.104 22.5965 142.857 21.9845C143.22 21.7042 143.512 21.3402 143.71 20.9226C143.908 20.505 144.005 20.0456 143.994 19.5822V18.6287C143.495 18.4045 142.975 18.2325 142.442 18.1155C141.843 17.9821 141.232 17.9159 140.62 17.9181C139.485 17.9181 138.593 18.1418 137.943 18.5892C137.63 18.7998 137.376 19.0895 137.206 19.43C137.036 19.7705 136.956 20.1501 136.973 20.5317V20.6027C136.957 20.9307 137.022 21.2575 137.162 21.5536C137.301 21.8497 137.511 22.1057 137.773 22.2984C138.298 22.6985 138.991 22.8985 139.853 22.8985V22.9024Z" fill="#212024"/>
<defs>
<linearGradient id="paint0_linear_0_23" x1="3.10248" y1="12.1105" x2="5.92655" y2="7.12767" gradientUnits="userSpaceOnUse">
<stop offset="0.2" stop-color="#BA383F"/>
<stop offset="0.56" stop-color="#BA3135"/>
<stop offset="1" stop-color="#BC3135"/>
</linearGradient>
<linearGradient id="paint1_linear_0_23" x1="529.011" y1="627.152" x2="624.103" y2="411.287" gradientUnits="userSpaceOnUse">
<stop offset="0.2" stop-color="#BA383F"/>
<stop offset="0.56" stop-color="#BA383F"/>
<stop offset="1" stop-color="#BA383F"/>
</linearGradient>
</defs>
</svg>
