<svg width="29" height="30" viewBox="0 0 29 30" fill="none" xmlns="http://www.w3.org/2000/svg">
<path d="M6.26433 29.4906H0.102661V8.95166H6.26433V29.4906ZM28.8571 29.4906H22.6955V18.5187C22.6955 15.6597 21.6767 14.2363 19.6578 14.2363C18.0578 14.2363 17.0431 15.0332 16.5338 16.6291V29.4906H10.3721C10.3721 29.4906 10.4543 11.0056 10.3721 8.95166H15.2357L15.6116 13.0594H15.7389C17.0021 11.0056 19.021 9.61301 21.7897 9.61301C23.8949 9.61301 25.5976 10.1984 26.8977 11.669C28.206 13.1416 28.8571 15.1174 28.8571 17.8922V29.4906Z" fill="white" fill-opacity="0.15"/>
<path d="M3.18353 6.898C4.94175 6.898 6.36706 5.51866 6.36706 3.81716C6.36706 2.11567 4.94175 0.736328 3.18353 0.736328C1.42532 0.736328 0 2.11567 0 3.81716C0 5.51866 1.42532 6.898 3.18353 6.898Z" fill="white" fill-opacity="0.15"/>
</svg>
