<svg width="203" height="21" viewBox="0 0 203 21" fill="none" xmlns="http://www.w3.org/2000/svg">
<path d="M53.4124 17.7843H47.8388C49.2875 16.6846 48.893 15.2274 48.9318 13.879C48.9698 12.7393 48.9304 11.5983 48.8138 10.4637L44.5174 17.8497C42.9526 15.2855 41.4541 12.8283 39.9538 10.373L39.7861 10.4075V12.351C39.7861 13.38 39.775 14.4089 39.7861 15.4361C39.7861 16.2963 39.9704 17.0947 40.9399 17.7281H35.193C36.3763 17.0276 36.3136 16.0041 36.3136 15.006C36.3136 12.3129 36.3136 9.61989 36.3136 6.92683C36.3136 5.87248 36.3836 4.79998 35.1266 4.00513H42.3259C42.208 4.21745 42.0974 4.39711 42.0034 4.58402C41.6937 5.20648 41.5776 5.85433 41.926 6.48767C42.724 7.92312 43.5608 9.33679 44.4511 10.8811C45.3229 9.28235 46.2518 7.82694 46.9043 6.26083C47.1586 5.65108 46.7937 4.7909 46.7052 4.00513H53.464C52.1056 5.16111 52.4263 6.65281 52.4134 8.06104C52.3932 10.3621 52.4134 12.6632 52.4134 14.957C52.4079 16.5521 52.4061 16.5521 53.4124 17.7843Z" fill="#6D6D6D"/>
<path d="M87.6377 4.00334C88.0064 3.96886 88.1501 3.94527 88.2884 3.94527C91.1692 3.94527 94.0519 3.9126 96.9327 3.95434C99.7693 3.99245 101.953 6.17012 101.8 8.79603C101.701 10.4855 100.695 11.6252 99.2458 12.4255C99.0523 12.5307 98.8496 12.607 98.562 12.7539C99.867 14.7937 101.067 16.8552 103.599 17.6537L103.55 17.8969C102.611 17.8969 101.671 17.9096 100.731 17.8969C98.7132 17.8497 97.1336 17.093 96.1936 15.2437C96.0277 14.9189 95.7236 14.6576 95.5817 14.3364C95.0103 12.9917 93.9818 12.6795 92.5221 13.0661C92.7266 14.5796 91.888 16.3126 93.5063 17.7336H87.7925C89.1583 16.7554 88.7842 15.3744 88.8007 14.1041C88.8302 11.7813 88.8007 9.4584 88.8007 7.13374C88.8026 6.0068 88.9556 4.84537 87.6377 4.00334ZM92.5442 9.69795C94.0666 9.69795 95.4932 9.71791 96.9364 9.69795C97.7086 9.68524 98.2874 9.14264 98.304 8.51112C98.3206 7.87959 97.6755 7.25351 96.9272 7.22085C96.1788 7.18818 95.3881 7.20996 94.6177 7.20814H92.5442V9.69795Z" fill="#6D6D6D"/>
<path d="M137.441 3.95787C140.575 3.95787 143.708 3.85624 146.827 3.99053C149.447 4.10123 151.434 6.27164 151.322 8.66345C151.243 10.3802 150.284 11.567 148.784 12.3764C148.675 12.4345 148.559 12.4762 148.447 12.5306C148.334 12.5851 148.233 12.645 148.128 12.7121C149.02 14.7192 150.533 16.2417 153.198 17.7697C151.221 17.9512 149.376 18.0674 147.643 17.2707C147.112 17.0275 146.661 16.5303 146.288 16.0585C145.697 15.3016 145.157 14.5075 144.672 13.6812C144.066 12.8192 142.491 12.9553 141.986 12.9553C142.134 14.6067 141.434 16.3434 143.054 17.757H137.13C138.529 16.944 138.311 15.7608 138.315 14.672C138.315 12.077 138.306 9.48189 138.315 6.88684C138.332 5.82341 138.354 4.79446 137.441 3.95787ZM142.023 9.67788C143.592 9.67788 145.081 9.70148 146.569 9.67788C146.886 9.67251 147.191 9.55072 147.422 9.33629C147.653 9.12187 147.795 8.83021 147.82 8.51827C147.814 8.19532 147.687 7.8859 147.464 7.64897C147.241 7.41203 146.937 7.26413 146.611 7.23345C145.103 7.18082 143.592 7.21712 142.033 7.21712L142.023 9.67788Z" fill="#6D6D6D"/>
<path d="M133.497 9.45831C132.284 7.77061 130.618 7.09916 128.677 6.95943C127.339 6.85962 126.128 7.1409 125.081 8.04826C123.531 9.37846 123.502 13.9606 126.467 14.9569C127.833 15.4142 129.212 15.3816 130.581 15.0549C130.824 14.9987 131.081 14.6248 131.156 14.3508C131.256 13.9879 131.18 13.5814 131.18 13.1912H127.931V10.5689H135.303C133.908 11.5216 134.321 16.1292 134.321 17.3651C132.448 16.7916 130.88 17.7988 129.184 18.0075C125.444 18.4684 122.009 16.9186 120.833 13.5977C119.485 9.78677 121.255 4.08127 127.308 3.67841C129.354 3.51112 131.405 3.94027 133.206 4.91242C133.604 5.12837 133.772 5.37154 133.733 5.83067C133.628 7.03746 133.571 8.24788 133.497 9.45831Z" fill="#6D6D6D"/>
<path d="M160.906 18.0856C156.781 18.0856 153.436 14.8499 153.451 10.8829C153.466 6.91595 156.826 3.644 160.904 3.65126C164.946 3.65126 168.318 6.92865 168.318 10.843C168.315 11.7981 168.122 12.7434 167.748 13.6247C167.374 14.506 166.827 15.306 166.139 15.9788C165.45 16.6516 164.634 17.184 163.736 17.5456C162.838 17.9071 161.876 18.0906 160.906 18.0856ZM160.86 6.86876C160.325 6.87128 159.796 6.97877 159.303 7.18496C158.81 7.39116 158.365 7.69192 157.991 8.06968C157.618 8.44744 157.325 8.89464 157.129 9.38514C156.934 9.87564 156.839 10.3996 156.851 10.9265C156.87 13.1042 158.682 14.9189 160.86 14.928C163.072 14.928 164.888 13.1132 164.888 10.8775C164.894 10.3521 164.795 9.83061 164.595 9.34346C164.395 8.85631 164.098 8.41324 163.723 8.04009C163.347 7.66695 162.9 7.3712 162.406 7.17009C161.913 6.96899 161.385 6.86655 160.851 6.86876H160.86Z" fill="#6D6D6D"/>
<path d="M60.5749 12.9408C60.8311 14.6085 60.0053 16.3507 61.6679 17.7353H55.8859C57.1411 16.8969 56.9255 15.6792 56.9273 14.5287C56.9273 11.8592 56.9273 9.19156 56.9273 6.52392C56.9273 5.58571 56.8388 4.70919 55.8214 4.05226C56.0228 4.00392 56.2272 3.96876 56.4333 3.94701C59.292 3.94701 62.1471 3.92342 65.0095 3.94701C67.4424 3.96879 69.5344 5.64559 69.8956 7.79786C70.3325 10.3929 68.1575 12.8628 65.3431 12.9299C63.8059 12.9716 62.2669 12.9408 60.5749 12.9408ZM60.6523 9.69061C62.2042 9.69061 63.6677 9.71239 65.1293 9.69061C65.8794 9.67428 66.3918 9.16253 66.4103 8.52375C66.408 8.20256 66.2836 7.89387 66.0614 7.65867C65.8392 7.42347 65.5356 7.27887 65.2104 7.25344C63.7082 7.19537 62.1987 7.23529 60.6523 7.23529V9.69061Z" fill="#6D6D6D"/>
<path d="M187.409 3.96885C190.562 3.96885 193.714 3.95978 196.868 3.97974C197.24 4.00551 197.606 4.08563 197.954 4.21747C200.202 4.92703 201.573 6.93956 201.284 9.08456C201.011 11.1207 198.98 12.8646 196.73 12.93C195.194 12.9735 193.657 12.93 191.985 12.93C192.181 14.5868 191.39 16.3162 193.014 17.7245H187.236C188.445 16.9024 188.31 15.7555 188.308 14.6394C188.308 12.019 188.294 9.40033 188.308 6.78168C188.319 5.76725 188.294 4.77641 187.409 3.96885ZM191.995 7.20269C191.995 7.95762 191.961 8.61818 192.019 9.26967C192.031 9.42392 192.35 9.66709 192.533 9.67253C193.823 9.70701 195.113 9.70338 196.403 9.68161C197.161 9.6689 197.773 9.13719 197.802 8.51837C197.832 7.89955 197.172 7.22991 196.431 7.21358C195.004 7.18092 193.563 7.20269 191.995 7.20269Z" fill="#6D6D6D"/>
<path d="M179.456 3.96875H184.703C183.396 5.88328 183.732 11.7448 183.704 12.4544C183.579 15.4795 182.058 17.2634 179.023 17.6681C177.717 17.8342 176.392 17.7956 175.098 17.5538C172.702 17.1092 171.289 15.4378 171.139 12.9716C171.012 10.8756 171.014 8.77051 171.01 6.66906C171.01 5.68185 170.883 4.7763 169.949 4.00867H175.609C174.144 5.1828 174.687 6.75072 174.616 8.18254C174.56 9.47644 174.582 10.774 174.616 12.0697C174.64 13.0279 174.816 13.9715 175.867 14.3689C177.078 14.8281 178.376 14.9279 179.378 14.0387C179.857 13.6122 180.116 12.7538 180.156 12.0769C180.259 10.0807 180.261 8.06458 180.171 6.06294C180.138 5.37153 179.716 4.69464 179.456 3.96875Z" fill="#6D6D6D"/>
<path d="M21.8726 3.99243H27.9402C27.0334 5.19197 27.7946 6.18643 28.2425 7.21175C29.4811 10.0391 30.7049 12.8719 31.9914 15.6793C32.3287 16.416 32.8706 17.0621 33.3111 17.7372H27.8867C28.9926 16.2745 27.8996 15.0895 27.4241 13.8319C27.3707 13.6921 27.0831 13.5597 26.9007 13.556C25.5847 13.5343 24.2668 13.5397 22.9508 13.556C22.796 13.556 22.5435 13.625 22.5066 13.7248C22.1321 14.617 21.8175 15.5323 21.5648 16.465C21.4781 16.828 21.7491 17.2817 21.8799 17.7353H16.1938C17.414 17.0276 17.766 15.9678 18.2102 14.9697C19.5004 12.0661 20.7704 9.13899 22.0808 6.23725C22.431 5.47143 22.4992 4.75825 21.8726 3.99243ZM24.9303 8.20259C24.4161 9.26239 23.9811 10.1643 23.5259 11.1062H26.3569C25.8851 10.1298 25.4464 9.24243 24.9303 8.19534V8.20259Z" fill="#6D6D6D"/>
<path d="M85.6803 17.7735H80.2578C81.3102 16.3217 80.3702 15.1512 79.8412 13.9317C79.7792 13.829 79.6942 13.7415 79.5926 13.6761C79.491 13.6107 79.3756 13.569 79.2551 13.5542C77.9649 13.5179 76.6747 13.5288 75.3845 13.5542C75.2113 13.5542 74.9348 13.6323 74.885 13.7484C74.5367 14.5541 74.1478 15.3599 73.9634 16.2074C73.8602 16.6737 74.1275 17.22 74.2362 17.7662H68.8063C70.7085 15.8081 71.2374 13.1768 72.3912 10.8703C73.1027 9.44751 73.6814 7.96669 74.3321 6.51491C74.885 5.26456 74.885 5.26456 74.38 4.03418H80.361C79.4634 5.06676 80.0771 5.97957 80.4863 6.91052C81.7397 9.75783 82.9709 12.6142 84.2648 15.4397C84.6334 16.2418 85.1955 16.9841 85.6803 17.7735ZM75.8932 11.0989H78.7519C78.2653 10.1262 77.8304 9.23518 77.3143 8.21531C76.7945 9.26603 76.3669 10.1371 75.8932 11.0989Z" fill="#6D6D6D"/>
<path d="M14.7452 9.67064C14.6143 9.48917 14.4871 9.29137 14.3544 9.10445C12.9813 7.18447 10.6184 6.33699 8.45635 6.98848C6.42889 7.60004 5.39673 9.1843 5.56446 11.4563C5.69348 13.2257 7.2878 14.8245 9.19729 15.1021C11.5049 15.4378 13.1453 14.9969 15.7441 13.3455C15.8732 13.9679 15.5985 14.9025 15.053 15.6828C14.0853 17.0584 12.6716 17.7843 11.0589 17.9803C8.08219 18.3577 5.39305 17.8623 3.36375 15.3598C0.398132 11.6995 2.16202 4.63478 8.22964 3.77642C10.6589 3.43162 12.8559 3.94337 14.911 5.2282C15.3386 5.49496 15.4326 5.76354 15.3515 6.24807C15.1672 7.36776 15.064 8.50015 14.9276 9.62891L14.7452 9.67064Z" fill="#6D6D6D"/>
<path d="M111.059 4.01964C109.873 4.9887 109.988 6.22453 109.993 7.44039C110.002 9.86124 109.993 12.2803 109.993 14.6993C109.993 15.7881 109.825 16.9296 110.9 17.7553H105.277C106.617 16.7282 106.327 15.358 106.338 14.0732C106.359 11.6052 106.338 9.13535 106.338 6.66732C106.338 5.68737 106.233 4.7546 105.175 4.01782L111.059 4.01964Z" fill="#6D6D6D"/>
</svg>
