<svg width="144" height="32" viewBox="0 0 144 32" fill="none" xmlns="http://www.w3.org/2000/svg">
<path d="M44.6968 19.7397C44.7833 19.5555 44.9427 19.2499 44.9996 19.0971L48.7672 10.1103L52.4642 19.1937C52.5211 19.351 52.6532 19.5914 52.7351 19.8071L52.2798 19.897C50.0207 20.5081 47.6366 20.5081 45.3775 19.897C45.156 19.823 44.927 19.7732 44.6945 19.7487L44.6968 19.7397ZM6.48347 6.03471C10.6677 6.03471 13.6135 6.88621 15.4711 8.5061C17.6861 10.4203 18.7948 12.9456 18.7948 16.1023C18.7948 19.1129 17.7157 21.6045 15.6077 23.5546C13.7523 25.2846 10.7314 26.199 6.50168 26.199H5.13578V6.02572L6.48347 6.03471ZM135.83 8.62068C137.929 10.627 138.935 13.1478 138.935 16.0955C138.957 17.485 138.693 18.8646 138.16 20.1506C137.626 21.4365 136.833 22.6023 135.83 23.5771C134.861 24.5652 133.697 25.3473 132.411 25.8754C131.124 26.4036 129.742 26.6666 128.349 26.6483C122.469 26.6483 117.779 21.8718 117.779 16.0888C117.759 14.6948 118.025 13.3112 118.56 12.0212C119.096 10.7313 119.89 9.56153 120.896 8.58249C121.861 7.59873 123.02 6.82124 124.302 6.29832C125.585 5.77539 126.962 5.51819 128.349 5.54268C129.742 5.52823 131.123 5.79299 132.409 6.32092C133.694 6.84884 134.858 7.62894 135.83 8.61394V8.62068ZM86.2224 10.3754L89.9468 7.21423C86.7346 2.98591 82.4503 0.89871 77.401 0.89871C73.3062 0.880787 69.3717 2.46808 66.4621 5.31176C63.5526 8.15544 61.9061 12.0228 61.8844 16.0641V16.1472C61.8844 24.4466 68.7867 31.2878 77.1893 31.2878C79.3063 31.2831 81.3968 30.823 83.3153 29.9398C85.2092 29.1169 86.8942 27.8891 88.2485 26.345C89.5018 24.9521 90.3994 23.2836 90.8665 21.4786C91.3377 19.6847 91.5129 17.8276 91.3855 15.9787L91.3309 15.098H77.8996V19.7487H86.1564C85.9447 21.5708 84.9954 23.1569 83.3222 24.4668C81.5839 25.887 79.3912 26.6521 77.1346 26.6259C74.4643 26.6259 72.0603 25.5317 69.8316 23.3704C68.8661 22.4334 68.1022 21.3137 67.5858 20.0783C67.0694 18.8428 66.8112 17.5172 66.8267 16.1809C66.7994 14.7601 67.0682 13.3489 67.6164 12.0348C68.1647 10.7208 68.9807 9.53195 70.0137 8.54204C70.9604 7.56879 72.1005 6.79901 73.3627 6.28095C74.6249 5.7629 75.9819 5.50773 77.3486 5.53144C80.991 5.53144 83.848 7.17379 86.227 10.3664L86.2224 10.3754ZM54.6519 24.3904L57.3837 30.8317H62.8064L50.083 1.28515H47.6198L34.5687 30.8317H39.9503L42.8141 24.2646C42.8681 24.1262 42.9122 23.9844 42.9462 23.8399C43.0714 23.9006 43.2421 23.9613 43.4607 24.0511C45.1871 24.68 47.0134 24.9995 48.8537 24.9948C50.4652 24.9932 52.0669 24.7469 53.6025 24.2646C53.9122 24.1748 54.2113 24.0528 54.4949 23.9006C54.5222 24.0219 54.6223 24.2983 54.6519 24.3904ZM6.32184 30.8317C11.8037 30.8317 16.0197 29.614 18.8426 27.0954C22.0798 24.2376 23.7189 20.58 23.7189 16.1202C23.7189 11.4718 22.0502 7.72873 18.7288 4.93157C15.9355 2.56577 11.765 1.37501 6.3742 1.37501H0V30.8317H6.32184ZM27.7209 1.37501V30.8317H32.6222V1.37501H27.7209ZM99.483 17.0886H109.925V12.4738H99.483V6.02572H110.866V1.37501H94.6V30.8317H110.9V26.1833H99.483V17.0886ZM117.42 5.35845C114.371 8.30614 112.867 11.9234 112.867 16.118C112.867 24.5971 119.799 31.2856 128.347 31.2856C136.895 31.2856 143.841 24.6308 143.841 16.118C143.841 11.9526 142.297 8.39601 139.308 5.38541C136.319 2.3748 132.636 0.89871 128.347 0.89871C124.058 0.89871 120.438 2.38828 117.42 5.36968" fill="#6D6D6D"/>
</svg>
