<svg width="182" height="30" viewBox="0 0 182 30" fill="none" xmlns="http://www.w3.org/2000/svg">
<g clip-path="url(#clip0_0_6557)">
<path fill-rule="evenodd" clip-rule="evenodd" d="M181.378 26.3496C180.986 25.9581 180.457 25.7351 179.903 25.728C179.615 25.7238 179.33 25.7765 179.063 25.8832C178.796 25.9899 178.553 26.1484 178.348 26.3496C177.948 26.768 177.725 27.3248 177.726 27.9036C177.735 28.4605 177.961 28.9919 178.357 29.3841C178.787 29.7656 179.336 29.9854 179.911 30.0057C180.465 29.9991 180.995 29.7761 181.387 29.3843C181.779 28.9926 182.002 28.4632 182.008 27.9092C182.009 27.3304 181.787 26.7737 181.387 26.3553L181.378 26.3496ZM179.903 26.0388C180.136 26.0366 180.368 26.084 180.582 26.178C180.796 26.272 180.987 26.4105 181.143 26.5841C181.325 26.7512 181.468 26.9558 181.562 27.1836C181.656 27.4115 181.7 27.6572 181.689 27.9036C181.707 28.1392 181.667 28.3757 181.572 28.592C181.476 28.8083 181.329 28.9979 181.143 29.1439C180.987 29.3176 180.796 29.456 180.582 29.55C180.368 29.644 180.136 29.6915 179.903 29.6892C179.656 29.7002 179.409 29.6571 179.181 29.5629C178.952 29.4687 178.747 29.3257 178.58 29.1439C178.407 28.9873 178.269 28.7958 178.175 28.5819C178.082 28.3681 178.035 28.1369 178.037 27.9036C178.036 27.6584 178.083 27.4154 178.177 27.1886C178.27 26.9619 178.408 26.7559 178.581 26.5825C178.754 26.4091 178.961 26.2718 179.187 26.1785C179.414 26.0852 179.657 26.0377 179.903 26.0388Z" fill="#6D6D6D"/>
<path fill-rule="evenodd" clip-rule="evenodd" d="M180.833 27.3583L180.445 26.8158L179.824 26.6604H178.976V29.0676H179.442V28.1353H179.753L180.219 28.2144L180.451 28.7568V29.0676H180.838V28.5365L180.686 28.1466L180.29 27.9714L180.601 27.816L180.833 27.3498V27.3583ZM179.747 26.9712L180.29 27.0475L180.445 27.4374L180.214 27.7482L179.824 27.8245H179.436V26.9768L179.747 26.9712Z" fill="#6D6D6D"/>
<path fill-rule="evenodd" clip-rule="evenodd" d="M75.851 10.0048C75.7747 5.5802 75.7747 2.82262 75.9301 1.46361L75.6983 1.38732L74.6864 2.04846L72.9905 1.85351C70.2744 0.793024 67.3516 0.367783 64.4458 0.61034C62.6821 0.668499 60.9496 1.09181 59.358 1.85351C57.7024 2.59251 56.1898 3.61677 54.8892 4.87951C52.1219 7.75293 50.8019 11.4796 50.8782 16.0228C50.9574 20.4474 52.3537 23.9339 55.2283 26.4259C57.9475 28.836 61.3252 29.9209 65.4436 29.7655C68.0944 29.7422 70.6827 28.9576 72.9 27.5052C74.4133 26.5842 75.6482 25.2698 76.4728 23.7023L77.0947 22.4591L76.7074 22.2274C75.4661 24.1137 73.7864 25.6715 71.8118 26.7678C69.9575 27.6795 67.8901 28.0701 65.8308 27.898C63.2671 27.8189 61.0935 26.6548 59.3862 24.5584C57.597 22.298 56.6275 19.3568 56.5597 15.8222C56.4438 11.9402 57.1815 8.75877 58.7757 6.19614C60.4716 3.47811 62.8912 2.07954 65.9212 2.04281C68.1833 1.8898 70.4154 2.62812 72.1397 4.0997C73.9088 5.60437 75.0694 7.70147 75.4044 9.99911L75.851 10.0048Z" fill="#6D6D6D"/>
<path fill-rule="evenodd" clip-rule="evenodd" d="M20.9336 7.21038C20.8044 6.31381 20.48 5.45649 19.9833 4.69884C19.4867 3.9412 18.8298 3.30168 18.059 2.82538C16.3941 1.54265 14.0198 0.997348 11.1847 1.07646L0.0791439 1.15557V1.65849L0.777307 1.77433L1.71007 2.08512L2.95094 2.86211C3.1324 3.02915 3.27522 3.23374 3.36944 3.46163C3.46366 3.68952 3.50701 3.93521 3.49647 4.18156V25.8834C3.49647 26.6604 2.87462 27.3582 1.71007 28.0589L0 28.5364V28.9998L6.95336 28.9235L14.2148 29.0789C17.0414 28.9998 19.3026 28.3019 21.0127 27.1774C22.7991 25.8184 23.8082 24.109 23.8845 21.9363C23.9637 19.676 23.1864 17.7434 21.4 16.2686C19.8231 14.9326 17.836 14.1767 15.7694 14.1269C17.1953 13.9329 18.5185 13.278 19.5373 12.2622C20.7781 10.9427 21.2332 9.31247 20.9336 7.21603V7.21038ZM13.983 3.87077C14.5676 4.38157 15.0311 5.01595 15.3401 5.72795C15.6491 6.43994 15.7957 7.21172 15.7694 7.98736C15.7694 9.92841 15.303 11.4033 14.3703 12.2565C13.2057 13.2793 11.3402 13.5788 8.62104 13.3443V2.86211C9.14016 2.64272 9.69239 2.51188 10.2548 2.47503C11.6317 2.43859 12.9688 2.93916 13.983 3.87077ZM18.2936 21.3882C18.3913 22.396 18.2308 23.4121 17.8272 24.3407C16.8944 26.4343 15.0006 27.6012 11.962 27.6775C9.70079 27.6775 8.62104 26.8299 8.62104 25.0386V15.1497L11.0236 14.8983C13.8982 15.13 15.9956 16.1782 17.2788 18.1983C17.877 19.1573 18.224 20.2514 18.2879 21.3797L18.2936 21.3882Z" fill="#6D6D6D"/>
<path fill-rule="evenodd" clip-rule="evenodd" d="M174.464 1.54272V1.15564H162.695V1.54272L164.39 2.08519C165.479 2.63049 166.021 3.40465 166.021 4.41614V25.8891C166.021 26.7819 165.479 27.4431 164.39 28.0647L162.695 28.6071V28.9942H174.464V28.6071L172.833 28.0647L171.745 27.2877C171.551 27.1067 171.396 26.8881 171.289 26.6453C171.182 26.4024 171.126 26.1403 171.123 25.875V4.33703C171.123 3.48941 171.669 2.70678 172.833 2.07672C173.367 1.86696 173.911 1.68588 174.464 1.53424V1.54272Z" fill="#6D6D6D"/>
<path fill-rule="evenodd" clip-rule="evenodd" d="M118.187 1.27148L114.535 1.15564L105.208 1.27148V1.55402L106.844 2.08519L107.93 2.86218C108.12 3.02598 108.274 3.22817 108.382 3.45555C108.489 3.68292 108.547 3.93034 108.552 4.18163V25.9626C108.547 26.2139 108.489 26.4613 108.382 26.6887C108.274 26.916 108.12 27.1182 107.93 27.282L106.844 27.9714L105.211 28.593V28.9801H116.554V28.593L115.078 28.0505L114.066 27.3498C113.742 26.9869 113.563 26.5171 113.563 26.0304V15.3617C113.563 15.3106 113.573 15.2601 113.593 15.2129C113.612 15.1658 113.641 15.123 113.678 15.087C113.714 15.051 113.757 15.0226 113.804 15.0033C113.851 14.984 113.902 14.9743 113.953 14.9746C114.691 14.9746 115.624 15.6753 116.78 16.9524L119.109 20.3683L121.285 24.2504L123.614 27.5109C124.51 28.4433 125.44 28.9236 126.373 28.9857C128.439 29.2078 130.521 29.2343 132.592 29.0648V28.5987C131.607 28.4777 130.671 28.1028 129.875 27.5109L128.326 25.6518L126.226 22.3206L123.897 18.594C122.382 16.1867 120.751 14.8277 119.041 14.4406C121.138 14.3615 122.848 13.7428 124.129 12.5759C125.604 11.3327 126.305 9.78156 126.071 7.9168C125.967 6.98426 125.667 6.08408 125.192 5.27497C124.717 4.46586 124.076 3.76599 123.312 3.221C121.85 2.05135 120.058 1.36951 118.187 1.27148ZM115.392 2.4751C116.779 2.49645 118.109 3.03678 119.117 3.98951C120.129 4.95862 120.672 6.27807 120.751 7.98743C120.827 9.53857 120.672 10.7055 120.206 11.5587C119.739 12.3357 118.886 12.8782 117.642 13.254L115.468 13.4885L113.682 13.3331V2.82545L115.392 2.47792V2.4751Z" fill="#6D6D6D"/>
<path fill-rule="evenodd" clip-rule="evenodd" d="M157.491 5.26941C154.695 2.70678 150.967 1.38732 146.382 1.15564L138.965 1.27148L132.984 1.15564V1.54272L134.615 2.08519L135.704 2.82545C135.883 3.00131 136.024 3.2129 136.116 3.44653C136.209 3.68015 136.251 3.93059 136.241 4.18163V25.9626L135.698 27.3583L134.61 28.059L132.984 28.5365V28.9999L146.23 29.1553C151.199 29.2344 155.162 27.8358 158.036 24.8098C159.217 23.4738 160.162 21.9471 160.832 20.2948C161.389 18.7368 161.675 17.0953 161.68 15.4408C161.68 11.2479 160.283 7.83204 157.485 5.26941H157.491ZM146.772 2.82545C149.351 3.29166 151.656 4.72094 153.22 6.82337C154.851 8.99892 155.628 11.6265 155.704 14.8221C155.781 18.0176 155.238 20.7554 154.073 22.8603C153.505 24.0235 152.677 25.0411 151.654 25.8351C150.631 26.629 149.44 27.1781 148.172 27.4402L146.071 27.6719L144.014 27.5956C143.166 27.3611 142.538 27.169 142.318 26.895C141.772 26.4288 141.47 25.6546 141.385 24.4905V2.86218C142.86 2.43554 144.726 2.43554 146.784 2.82262L146.772 2.82545Z" fill="#6D6D6D"/>
<path fill-rule="evenodd" clip-rule="evenodd" d="M39.9253 0.765625L35.6854 0.881466L27.0701 25.4285C26.7379 26.4835 26.0163 27.3726 25.0519 27.9148L22.8754 28.6127V28.9998H32.2031V28.6127L30.3376 27.9148C30.0741 27.751 29.8575 27.5217 29.7089 27.2494C29.5603 26.9771 29.4847 26.671 29.4896 26.3608L30.0238 24.0158L32.4292 16.9523H40.2362L42.6444 23.7078L43.2663 26.0359C43.3454 26.8129 43.1108 27.4486 42.489 27.8216L40.7026 28.5364V28.9998H52.8201V28.5364L50.9574 27.9713C50.5047 27.7575 50.0995 27.4551 49.766 27.0818C49.4324 26.7086 49.1772 26.2722 49.0155 25.7986L39.9253 0.765625ZM39.6935 14.9745H33.0511L36.3921 5.4247L39.6935 14.9745Z" fill="#6D6D6D"/>
<path fill-rule="evenodd" clip-rule="evenodd" d="M91.7392 0.88147H87.5417L78.8811 25.4285C78.7303 25.9577 78.4737 26.4509 78.1268 26.8783C77.7799 27.3056 77.35 27.6582 76.8629 27.9148L74.7656 28.5364V28.9998H83.9689V28.6127L82.1825 27.9148C81.5607 27.5249 81.2526 27.0672 81.3346 26.3608L81.7953 24.0158L84.2035 16.9523H92.1179L95.1452 26.0359C95.1921 26.3759 95.1447 26.7223 95.0082 27.0372C94.8716 27.3521 94.6511 27.6234 94.3707 27.8216C93.8357 28.1867 93.225 28.4262 92.5843 28.5223V28.9856H104.583V28.5364L102.805 27.9713C101.915 27.5241 101.235 26.7477 100.909 25.8071L91.7392 0.88147ZM91.5809 14.9745H84.9017L88.2427 5.4247L91.5809 14.9745Z" fill="#6D6D6D"/>
</g>
<defs>
<clipPath id="clip0_0_6557">
<rect width="182" height="30" fill="white"/>
</clipPath>
</defs>
</svg>
