<svg width="211" height="31" viewBox="0 0 211 31" fill="none" xmlns="http://www.w3.org/2000/svg">
<g clip-path="url(#clip0_0_6486)">
<path d="M166.135 26.8188C165.633 26.7057 165.161 26.4871 164.75 26.1775C164.338 25.8679 163.997 25.4744 163.748 25.0228L158.807 15.9526L161.814 13.026C162.245 12.6219 162.7 12.2452 163.178 11.8982C163.662 11.5749 164.2 11.3401 164.766 11.2046C164.999 11.1595 165.216 10.9227 165.137 9.75257C165.081 8.72065 164.884 8.64734 164.634 8.62479C164.513 8.60787 164.072 8.59659 164.072 8.59659C164.072 8.59659 162.031 8.62761 160.384 8.62761C158.736 8.62761 156.431 8.59659 156.431 8.59659C156.239 8.59447 156.046 8.60389 155.855 8.62479C155.605 8.65016 155.414 8.72347 155.346 9.75257C155.276 10.6886 155.346 10.9593 155.557 11.0552C155.832 11.1651 156.096 11.3001 156.347 11.4583C156.78 11.7572 156.909 12.1125 156.521 12.51L154.455 14.6415L152.442 16.3163V3.10146C152.383 2.01315 152.08 1.5282 150.899 1.5282H144.599C144.071 1.5282 143.868 1.6297 143.756 2.14002C143.679 2.54361 143.636 2.9529 143.627 3.36367C143.59 3.89937 143.908 3.92756 144.327 4.13338C144.495 4.22924 144.847 4.41533 144.996 4.49991C145.71 4.90874 145.921 5.3232 145.921 7.00642V23.7709C145.921 25.6346 145.327 26.2746 144.796 26.5284C144.616 26.613 144.456 26.7342 144.234 26.8272C143.731 27.0387 143.635 27.2784 143.714 27.8028C143.75 28.0368 143.697 28.7022 143.826 29.1477C143.97 29.6523 144.107 29.7595 144.757 29.7595H153.676C154.314 29.7595 154.461 29.6523 154.601 29.1477C154.689 28.7044 154.739 28.2545 154.75 27.8028C154.823 27.2784 154.75 27.0218 154.23 26.816C154.014 26.7257 153.862 26.613 153.668 26.534C152.625 26.0463 152.414 24.9946 152.414 23.286V22.0708L154.225 20.5821L158.947 29.19C159.195 29.6523 159.265 29.7538 159.911 29.7538H165.573C166.219 29.7538 166.357 29.6467 166.503 29.142C166.588 28.6984 166.636 28.2486 166.647 27.7971C166.728 27.2727 166.647 27.0161 166.132 26.8103L166.135 26.8188ZM177.697 17.9657L175.935 18.5549C174.223 19.1386 173.405 19.257 172.997 18.1518C172.516 16.8266 172.997 12.6397 175.15 11.9856C177.444 11.2864 178.895 12.4226 179.595 14.7825C179.853 15.6594 179.8 16.5841 179.51 16.9337C179.097 17.4384 178.363 17.7429 177.697 17.9657ZM180.058 20.3002C181.813 19.661 183.506 18.8646 185.118 17.9206C186.279 17.1508 186.456 16.071 185.939 14.9066C184.312 11.2412 180.598 7.37295 174.484 8.54584C169.593 9.4819 166.107 13.8859 166.107 18.9299C166.107 25.175 169.86 28.8206 174.627 29.9569C179.035 31.0141 184.407 28.8432 186.521 25.113C186.839 24.2418 185.959 22.6629 184.286 22.8067C183.232 24.0021 181.43 25.3442 179.977 25.8151C178.611 26.2493 174.695 26.596 173.551 23.3593C173.27 22.6037 173.497 22.381 174.13 22.2541C174.462 22.1836 177.503 21.256 180.064 20.2974" fill="#6D6D6D"/>
<path d="M196.073 16.4459C196.073 14.3877 197.217 13.2261 198.603 13.0626C199.508 12.947 200.681 13.6011 200.681 15.1518V25.7924C200.681 28.8262 203.255 29.9906 205.263 29.9906C207.399 29.9906 209.237 29.0066 210.041 27.2867C210.126 27.0724 210.141 26.8366 210.084 26.6133C210.027 26.3899 209.901 26.1904 209.724 26.0434C209.378 25.7078 209.162 25.4146 208.658 25.6656C208.062 25.9475 207.132 27.0189 207.132 25.361C207.132 23.7032 207.09 18.5379 207.095 14.3792C207.095 10.8295 205.426 9.30421 203.559 8.71776C201.361 8.02699 198.702 9.16041 197.341 9.80325C196.641 10.1388 196.301 10.3192 196.301 10.3192C196.204 10.1606 196.116 9.99685 196.037 9.82863C195.815 9.33522 195.755 9.0279 195.145 9.0279H188.539C188.017 9.0279 187.898 9.13222 187.778 9.6369C187.671 10.0796 187.735 10.4404 187.688 10.9818C187.64 11.5231 187.969 11.5457 188.388 11.7515C188.556 11.8445 188.688 11.9714 188.832 12.056C189.27 12.3041 189.568 13.1359 189.568 14.5061V23.7681C189.568 25.6317 188.891 26.2717 188.36 26.5255C188.18 26.6101 188.022 26.7313 187.797 26.8244C187.294 27.0358 187.204 27.2755 187.277 27.7999C187.287 28.2501 187.324 28.6993 187.39 29.1448C187.539 29.6495 187.671 29.7566 188.323 29.7566H197.251C197.895 29.7566 198.035 29.6495 198.176 29.1448C198.266 28.702 198.314 28.2517 198.319 27.7999C198.398 27.2755 198.319 27.0189 197.81 26.8131C197.594 26.7229 197.434 26.6101 197.248 26.5311C196.72 26.2774 196.068 25.6374 196.068 23.7737V16.4431" fill="#6D6D6D"/>
<path d="M108.075 16.4459C108.075 14.3877 109.199 13.2261 110.605 13.0626C111.519 12.947 112.682 13.6011 112.682 15.1518V25.7924C112.682 28.8262 115.257 29.9906 117.267 29.9906C119.401 29.9906 121.234 29.0066 122.046 27.2867C122.133 27.0719 122.148 26.8348 122.089 26.6107C122.03 26.3866 121.901 26.1876 121.72 26.0434C121.38 25.7078 121.158 25.4146 120.655 25.6656C120.061 25.9475 119.128 27.0189 119.128 25.361C119.128 23.7032 119.092 18.5379 119.092 14.3792C119.092 10.8295 117.422 9.30421 115.569 8.71776C113.36 8.02699 110.695 9.16041 109.337 9.80325C108.643 10.1388 108.3 10.3192 108.3 10.3192C108.3 10.3192 108.12 10.0147 108.019 9.82863C107.802 9.33522 107.738 9.0279 107.136 9.0279H100.547C100.021 9.0279 99.9059 9.13222 99.7823 9.6369C99.7233 10.0827 99.6951 10.5321 99.6979 10.9818C99.6558 11.5147 99.979 11.5457 100.387 11.7515C100.567 11.8445 100.693 11.9714 100.836 12.056C101.278 12.3041 101.573 13.1359 101.573 14.5061V23.7681C101.573 25.6317 100.901 26.2717 100.361 26.5255C100.19 26.6101 100.032 26.7313 99.816 26.8244C99.31 27.0358 99.22 27.2755 99.3016 27.7999C99.2963 28.2505 99.332 28.7007 99.4084 29.1448C99.5489 29.6495 99.6895 29.7566 100.333 29.7566H109.272C109.919 29.7566 110.057 29.6495 110.2 29.1448C110.282 28.7009 110.329 28.2512 110.341 27.7999C110.422 27.2755 110.341 27.0189 109.829 26.8131C109.615 26.7229 109.452 26.6101 109.267 26.5311C108.73 26.2774 108.078 25.6374 108.078 23.7737V16.4431" fill="#6D6D6D"/>
<path d="M91.6414 8.05524C92.3299 8.0276 92.9952 7.79749 93.5544 7.39357C94.1135 6.98964 94.542 6.42972 94.7863 5.78347C95.0307 5.13723 95.0802 4.43318 94.9287 3.75892C94.7772 3.08467 94.4314 2.46998 93.9343 1.99132C93.4371 1.51267 92.8107 1.19119 92.1328 1.06688C91.4549 0.942563 90.7556 1.02091 90.1218 1.29216C89.4879 1.56341 88.9476 2.0156 88.568 2.59246C88.1885 3.16932 87.9864 3.84539 87.9869 4.53655C87.9964 5.00829 88.0985 5.47353 88.2873 5.90569C88.4761 6.33785 88.748 6.72847 89.0874 7.05523C89.4267 7.38199 89.8269 7.63849 90.2652 7.81007C90.7034 7.98166 91.171 8.06497 91.6414 8.05524Z" fill="#6D6D6D"/>
<path d="M95.4869 23.7737V10.0007C95.4959 9.91253 95.4874 9.82349 95.462 9.73864C95.4366 9.6538 95.3948 9.57481 95.3389 9.5062C95.283 9.43759 95.2142 9.3807 95.1364 9.33879C95.0585 9.29688 94.9733 9.27077 94.8854 9.26196H87.8801C87.3545 9.26196 87.2392 9.36065 87.1211 9.86533C87.0574 10.3107 87.0274 10.7603 87.0312 11.2102C86.989 11.7431 87.3123 11.7741 87.7199 11.9856C87.8998 12.0758 88.0291 12.1998 88.1697 12.2844C88.611 12.541 88.8443 13.3699 88.8443 14.7402V23.7625C88.8443 25.6261 88.2343 26.2661 87.6946 26.5199C87.5231 26.6045 87.3657 26.7257 87.1492 26.8188C86.6404 27.0302 86.5561 27.2699 86.6348 27.7943C86.6291 28.2451 86.6658 28.6953 86.7445 29.1392C86.8822 29.6439 87.0256 29.751 87.6665 29.751H96.662C97.3029 29.751 97.4463 29.6439 97.5925 29.1392C97.6767 28.6956 97.7247 28.2458 97.7358 27.7943C97.8117 27.2699 97.7218 27.0133 97.2158 26.8075C97.0049 26.7173 96.8475 26.6045 96.6535 26.5255C96.1251 26.2718 95.4673 25.6318 95.4673 23.7681" fill="#6D6D6D"/>
<path d="M62.6338 23.2887V7.79862C62.6338 5.61071 62.8193 4.91995 63.5727 4.62108C64.0112 4.44064 64.6971 4.12204 64.9164 4.02054C65.1356 3.91904 65.2565 3.65401 65.1666 2.89275C65.0766 2.1315 65.0119 1.74523 64.8236 1.69166C64.5978 1.64656 64.3678 1.62671 64.1377 1.63245C63.1622 1.61272 54.6025 1.63245 54.5969 1.63245C54.3332 1.62965 54.0695 1.64094 53.807 1.66628C53.6383 1.70294 53.5259 1.99334 53.4584 2.79407C53.3769 3.73013 53.4584 3.92186 53.6805 4.02054C53.9025 4.11922 54.3832 4.44064 54.729 4.62108C55.3109 4.91995 55.5442 5.61071 55.5442 7.79862L55.5133 11.6359C55.5137 11.7141 55.4986 11.7917 55.4689 11.864C55.4392 11.9364 55.3955 12.0021 55.3404 12.0574C55.2852 12.1127 55.2197 12.1565 55.1476 12.1863C55.0754 12.2161 54.9981 12.2312 54.9201 12.2308H49.4891C49.3335 12.2316 49.1839 12.1707 49.0729 12.0614C48.9618 11.9521 48.8982 11.8032 48.896 11.6472L48.8595 7.8099C48.8595 5.62199 49.104 4.93122 49.6803 4.63236C50.0204 4.45191 50.5236 4.15023 50.7232 4.03181C51.1421 3.7978 50.8609 1.97643 50.6614 1.72549C50.5011 1.52531 49.8714 1.60426 49.8714 1.59862H40.2547C40.2547 1.59862 39.6503 1.65783 39.5773 1.68884C39.2371 1.83263 38.9391 3.84573 39.3692 4.03181C39.5857 4.13332 40.28 4.45191 40.7157 4.63236C41.4663 4.93122 41.7755 5.62199 41.7811 7.8099V23.3169C41.7811 25.784 41.2189 26.1364 40.4965 26.5001C39.9792 26.7821 39.5435 26.7821 39.2793 27.1852C39.015 27.5884 39.2427 29.5762 39.5773 29.7481C39.8493 29.8021 40.1264 29.8267 40.4037 29.8214H50.2425C50.5174 29.8139 50.7915 29.7895 51.0633 29.7481C51.4288 29.6523 51.6256 27.5743 51.3698 27.1852C51.1139 26.7962 50.667 26.7708 50.1413 26.5001C49.4217 26.1223 48.8707 25.784 48.8707 23.3169L48.9129 17.1085C48.9129 16.9502 48.9752 16.7983 49.0862 16.6858C49.1973 16.5734 49.3482 16.5094 49.506 16.5079H54.9258C55.0851 16.5079 55.238 16.571 55.3512 16.6835C55.4643 16.796 55.5287 16.9487 55.5302 17.1085L55.5611 23.2887C55.5611 25.7558 54.9989 26.0744 54.2848 26.4719C54.0037 26.627 53.0873 26.9033 52.9187 27.1542C52.75 27.4052 52.9749 29.5592 53.3375 29.7087C53.5319 29.7561 53.7307 29.7825 53.9307 29.7876H64.1911C64.1911 29.7876 64.7758 29.7453 64.8405 29.7199C65.189 29.5705 65.4027 27.5461 65.1469 27.1571C64.8911 26.768 64.4413 26.7426 63.9156 26.4719C63.196 26.0941 62.645 25.7558 62.6506 23.2887" fill="#6D6D6D"/>
<path d="M134.134 17.9656L132.368 18.5549C130.656 19.1385 129.838 19.257 129.428 18.1517C128.953 16.8266 129.411 12.6397 131.578 11.9856C133.872 11.2863 135.334 12.4226 136.028 14.7825C136.29 15.6593 136.236 16.5841 135.944 16.9337C135.531 17.4384 134.794 17.7429 134.134 17.9656ZM136.495 20.2973C138.25 19.6594 139.944 18.8629 141.555 17.9177C142.722 17.148 142.89 16.0681 142.376 14.9037C140.745 11.2384 137.035 7.3701 130.918 8.543C126.035 9.47906 122.541 13.8718 122.541 18.9271C122.541 25.1722 126.285 28.8178 131.061 29.954C135.469 31.0141 140.835 28.8431 142.949 25.113C143.273 24.2418 142.387 22.6629 140.7 22.8067C139.658 24.0021 137.85 25.3442 136.394 25.815C135.028 26.2492 131.112 26.596 129.973 23.3593C129.692 22.6037 129.92 22.3809 130.555 22.2541C130.884 22.1836 133.929 21.256 136.484 20.2973" fill="#6D6D6D"/>
<path d="M77.0012 17.9656L75.2443 18.5549C73.5267 19.1385 72.7003 19.257 72.2983 18.1517C71.8204 16.8266 72.2983 12.6397 74.4544 11.9856C76.7426 11.2779 78.2044 12.4226 78.8987 14.7825C79.1601 15.6593 79.1067 16.5841 78.8144 16.9337C78.4068 17.4384 77.6703 17.7429 77.0012 17.9656ZM79.371 20.3002C81.1255 19.661 82.819 18.8646 84.4309 17.9205C85.5975 17.1508 85.7718 16.071 85.2517 14.9065C83.6269 11.2412 79.9276 7.37291 73.7966 8.54581C68.9137 9.48187 65.4224 13.8859 65.4224 18.9299C65.4224 25.175 69.1667 28.8206 73.9399 29.9568C78.3477 31.0085 83.7113 28.8459 85.8336 25.1158C86.1541 24.2446 85.2714 22.6657 83.5848 22.8095C82.5419 24.0049 80.7343 25.347 79.2838 25.8178C77.912 26.252 73.9962 26.5988 72.8577 23.3621C72.5766 22.6065 72.8043 22.3837 73.4396 22.2569C73.7685 22.1864 76.8129 21.2588 79.3738 20.3002" fill="#6D6D6D"/>
<path d="M207.517 3.2621H206.797V2.36833H207.421C207.703 2.36833 208.026 2.48674 208.026 2.79407C208.025 2.85651 208.012 2.91819 207.988 2.97557C207.963 3.03294 207.927 3.08487 207.883 3.12837C207.838 3.17187 207.785 3.20608 207.727 3.22903C207.669 3.25198 207.607 3.26322 207.545 3.2621H207.517ZM205.901 5.5515H206.792V4.03745H207.146C207.599 4.06 207.829 4.13895 207.964 4.55905C208.049 4.89172 208.155 5.21853 208.282 5.5374H209.204C209.058 5.23544 208.954 4.91479 208.894 4.58442C208.881 4.40629 208.826 4.23389 208.733 4.08144C208.64 3.929 208.512 3.80085 208.36 3.70757C208.546 3.62072 208.701 3.47932 208.805 3.3021C208.909 3.12488 208.957 2.92019 208.942 2.71512C208.942 1.89184 208.079 1.63245 207.767 1.63245H205.901V5.54022" fill="#6D6D6D"/>
<path d="M207.391 6.64545C206.829 6.64601 206.28 6.47954 205.813 6.1671C205.346 5.85466 204.981 5.41028 204.766 4.89015C204.55 4.37002 204.494 3.79751 204.603 3.24501C204.712 2.69251 204.981 2.18484 205.378 1.78619C205.775 1.38754 206.28 1.11583 206.831 1.0054C207.382 0.894979 207.953 0.950805 208.472 1.16582C208.991 1.38084 209.434 1.74539 209.747 2.21337C210.059 2.68136 210.226 3.23176 210.227 3.79497C210.227 4.16893 210.154 4.5393 210.012 4.88494C209.87 5.23057 209.661 5.54471 209.397 5.8094C209.134 6.07409 208.821 6.28416 208.477 6.42761C208.133 6.57106 207.763 6.64508 207.391 6.64545ZM203.781 3.79779C203.781 4.5138 203.992 5.21389 204.388 5.80954C204.784 6.40518 205.347 6.86963 206.007 7.14415C206.666 7.41867 207.392 7.49093 208.092 7.35179C208.792 7.21265 209.436 6.86836 209.941 6.36246C210.446 5.85657 210.79 5.21178 210.93 4.50964C211.07 3.8075 210.999 3.07955 210.726 2.41783C210.454 1.75611 209.991 1.19035 209.398 0.792099C208.805 0.393844 208.107 0.180978 207.393 0.18042C206.437 0.18042 205.519 0.561444 204.842 1.23975C204.165 1.91806 203.785 2.83815 203.784 3.79779" fill="#6D6D6D"/>
<path d="M32.572 11.7628C32.4926 11.5146 32.3359 11.2984 32.1249 11.1462C31.9139 10.9939 31.6597 10.9136 31.3998 10.917H20.7767L17.4934 0.783827C17.4118 0.537454 17.2549 0.32312 17.045 0.171278C16.8351 0.0194349 16.5828 -0.0621938 16.324 -0.0620114C16.0634 -0.0621795 15.8094 0.0192354 15.5972 0.17087C15.3851 0.322505 15.2254 0.536794 15.1405 0.783827L11.8628 10.917H1.24531C0.979559 10.91 0.718681 10.9894 0.501505 11.1431C0.28433 11.2969 0.122469 11.5169 0.0400155 11.7704C-0.0424379 12.0239 -0.0410755 12.2973 0.0438998 12.5499C0.128875 12.8026 0.29292 13.021 0.511617 13.1725L9.11072 19.4318L5.82738 29.548C5.74651 29.7969 5.74622 30.0651 5.82654 30.3141C5.90687 30.5632 6.06369 30.7804 6.27457 30.9347C6.48546 31.0889 6.73958 31.1723 7.00059 31.1729C7.26159 31.1735 7.51609 31.0913 7.72767 30.938L16.324 24.6703L24.9118 30.938C25.1237 31.0916 25.3785 31.1741 25.6398 31.1737C25.9012 31.1734 26.1558 31.0901 26.3672 30.936C26.5786 30.7818 26.736 30.5646 26.8169 30.3153C26.8978 30.066 26.8981 29.7974 26.8177 29.548L23.5344 19.4148L32.1279 13.1556C32.3385 12.9997 32.4947 12.7813 32.5744 12.5312C32.6542 12.2812 32.6533 12.0123 32.572 11.7628Z" fill="#6D6D6D"/>
<path d="M16.324 1.16162L12.7567 12.1519H1.24249L10.564 18.944L6.99678 29.9314L16.324 23.1422L25.6427 29.9314L22.0811 18.944L31.3998 12.1519H19.8772L16.324 1.16162Z" fill="#6D6D6D"/>
</g>
<defs>
<clipPath id="clip0_0_6486">
<rect width="211" height="31" fill="white"/>
</clipPath>
</defs>
</svg>
