<svg width="266" height="51" viewBox="0 0 266 51" fill="none" xmlns="http://www.w3.org/2000/svg">
<path fill-rule="evenodd" clip-rule="evenodd" d="M10.3704 24.993C12.6693 25.8692 14.7914 27.1607 16.6331 28.8044C16.7116 27.6346 16.9714 26.4846 17.403 25.3963C17.403 25.3963 16.2201 23.1242 12.6743 20.6788C8.83638 18.0546 4.46458 17.3389 4.46458 17.3389C3.57135 19.3132 2.95478 21.4038 2.63269 23.5502C2.63269 23.5502 5.82163 23.1924 10.3704 24.9703V24.993Z" fill="#8E8E8E"/>
<path fill-rule="evenodd" clip-rule="evenodd" d="M13.0901 17.2793C16.6921 20.8039 17.9817 24.3256 17.9817 24.3256C18.6329 23.2472 19.493 22.313 20.5104 21.5792C20.5104 21.5792 19.232 17.3986 17.0461 14.2347C14.9192 11.1276 11.4268 8.55444 11.4268 8.55444C9.71285 9.8554 8.19807 11.4048 6.9314 13.1526C6.9314 13.1526 10.4884 14.7118 13.0901 17.2793Z" fill="#8E8E8E"/>
<path fill-rule="evenodd" clip-rule="evenodd" d="M19.409 12.9197C20.3905 15.5386 21.0647 18.2648 21.4179 21.0425C22.5879 20.4686 23.8475 20.1044 25.1407 19.9661C25.1377 17.2184 24.861 14.4781 24.3146 11.7865C23.7827 9.10675 23.052 6.47125 22.1287 3.90234C20.0451 4.23644 18.0171 4.85957 16.1021 5.7541C16.1021 5.7541 18.288 10.054 19.409 12.9197Z" fill="#8E8E8E"/>
<path fill-rule="evenodd" clip-rule="evenodd" d="M40.796 24.9931C38.5055 25.8903 36.3864 27.1829 34.5333 28.813C34.5036 27.643 34.2637 26.4882 33.8253 25.4049C33.8253 25.4049 35.0054 23.1328 38.5511 20.6875C41.0286 19.0521 43.7953 17.916 46.6991 17.3418C47.6163 19.3069 48.2339 21.4011 48.531 23.5531C48.531 23.5531 45.3392 23.1953 40.7904 24.9732L40.796 24.9931Z" fill="#8E8E8E"/>
<path fill-rule="evenodd" clip-rule="evenodd" d="M38.1381 17.2792C34.5333 20.8038 33.2353 24.3256 33.2353 24.3256C32.5713 23.2321 31.6808 22.2971 30.6251 21.5848C30.6251 21.5848 31.985 17.4042 34.1119 14.2403C36.2978 11.1332 39.7846 8.56006 39.7846 8.56006C41.4833 9.87857 42.9958 11.4256 44.28 13.1582C44.28 13.1582 40.7398 14.7118 38.1381 17.2792Z" fill="#8E8E8E"/>
<path fill-rule="evenodd" clip-rule="evenodd" d="M31.8164 12.9197C30.8004 15.5314 30.1059 18.2595 29.7485 21.0425C28.603 20.4696 27.3666 20.1052 26.0959 19.9661C26.0962 17.2211 26.354 14.4823 26.8658 11.7865C27.4307 9.10829 28.1818 6.4737 29.1135 3.90234C31.1904 4.23821 33.2117 4.86131 35.1205 5.7541C35.1205 5.7541 32.9346 10.054 31.8108 12.9197H31.8164Z" fill="#8E8E8E"/>
<path fill-rule="evenodd" clip-rule="evenodd" d="M13.5032 39.1936C16.317 37.8924 19.4063 37.3176 22.494 37.5208C20.9362 36.8978 19.57 35.8677 18.5352 34.5358C18.5352 34.5358 14.5174 34.0587 11.4465 34.6551C6.77969 35.6094 4.70337 37.2112 4.70337 37.2112C5.65151 39.1672 6.8627 40.9812 8.30252 42.6017C9.8729 41.2295 11.6229 40.0827 13.5032 39.1936Z" fill="#6D6D6D"/>
<path fill-rule="evenodd" clip-rule="evenodd" d="M10.0164 32.3773C14.6242 32.1388 17.7569 33.3316 17.7569 33.3316C17.1558 32.2897 16.792 31.1254 16.6921 29.9235C16.6921 29.9235 13.0901 27.8502 9.72135 27.4327C5.11353 26.7738 2.39661 27.6713 2.39661 27.6713C2.44739 29.8416 2.80503 31.9935 3.45865 34.0615C5.52247 33.0943 7.74612 32.5232 10.0164 32.3773Z" fill="#6D6D6D"/>
<path fill-rule="evenodd" clip-rule="evenodd" d="M25.6127 42.7182C32.1114 42.7182 35.0054 48.4524 35.0054 48.4524C37.0303 47.5451 38.9214 46.359 40.6247 44.9278C40.6247 44.9278 35.0728 37.8815 25.6184 37.8815C16.1639 37.8815 10.6121 44.9278 10.6121 44.9278C12.3062 46.3718 14.1991 47.5591 16.2313 48.4524C16.2313 48.4524 19.0663 42.7182 25.624 42.7182H25.6127Z" fill="#6D6D6D"/>
<path fill-rule="evenodd" clip-rule="evenodd" d="M37.666 39.1936C33.2352 37.0436 28.6752 37.5208 28.6752 37.5208C30.2489 36.8982 31.6334 35.8689 32.6901 34.5358C32.6901 34.5358 36.7079 34.0587 39.7817 34.6551C44.4485 35.6094 46.5248 37.2112 46.5248 37.2112C45.5757 39.1673 44.3636 40.9813 42.9229 42.6017C41.3248 41.2392 39.5576 40.0935 37.666 39.1936Z" fill="#6D6D6D"/>
<path fill-rule="evenodd" clip-rule="evenodd" d="M41.1501 32.3774C36.6013 32.1388 33.4713 33.3317 33.4713 33.3317C34.0443 32.2776 34.4053 31.1193 34.5334 29.9235C34.5334 29.9235 38.1381 27.8332 41.5041 27.4157C46.1147 26.7568 48.8316 27.6543 48.8316 27.6543C48.7522 29.822 48.3943 31.9701 47.7668 34.0445C45.6831 33.0774 43.4391 32.512 41.1501 32.3774Z" fill="#6D6D6D"/>
<path fill-rule="evenodd" clip-rule="evenodd" d="M67.0999 28.8925V20.0512H70.8367C72.1713 20.0512 73.239 20.1875 74.3094 21.0651C74.8241 21.4729 75.2413 21.9924 75.5302 22.5854C75.8192 23.1783 75.9725 23.8293 75.9787 24.4902C75.9849 25.1511 75.8439 25.805 75.5661 26.4033C75.2883 27.0017 74.8809 27.5292 74.3741 27.9467C73.3064 28.8243 72.1713 28.8925 70.8367 28.8925H67.0999ZM67.0999 30.8493H71.0334C72.9692 30.8493 74.5736 30.5653 76.0402 29.1623C76.7192 28.5408 77.2558 27.7771 77.6127 26.9243C77.9696 26.0716 78.1382 25.1504 78.1066 24.225C78.075 23.2997 77.8441 22.3924 77.43 21.5666C77.0158 20.7407 76.4284 20.0161 75.7086 19.4434C74.2392 18.3642 72.5703 18.0944 70.8339 18.0944H62.2926V20.0512H64.9618V37.2055H62.2926V39.1623H69.7016V37.2055H67.0999V30.8493Z" fill="#6D6D6D"/>
<path fill-rule="evenodd" clip-rule="evenodd" d="M80.249 30.5114C80.6507 27.6088 83.2553 25.1805 86.1913 25.1805C89.3297 25.1805 92.0663 27.4072 92.4681 30.5768L80.249 30.5086V30.5114ZM91.5943 34.8313C91.0564 35.7755 90.2768 36.5557 89.3374 37.09C88.398 37.6242 87.3335 37.8928 86.256 37.8673C84.7251 37.847 83.2576 37.2459 82.1445 36.1833C81.0314 35.1207 80.3538 33.6741 80.2461 32.1303H94.2662V31.5254C94.2802 30.458 94.0826 29.3986 93.685 28.4097C93.2874 27.4207 92.698 26.5223 91.9514 25.7673C91.2048 25.0124 90.3162 24.4162 89.338 24.014C88.3599 23.6117 87.3119 23.4116 86.256 23.4253C81.783 23.4253 78.3103 27.2055 78.3103 31.5907C78.3103 35.9758 81.9151 39.543 86.3234 39.543C87.8671 39.5539 89.3811 39.1141 90.6834 38.2762C91.9858 37.4384 93.0211 36.2382 93.665 34.8199L91.5943 34.8313Z" fill="#6D6D6D"/>
<path fill-rule="evenodd" clip-rule="evenodd" d="M99.8097 26.7993C100.546 24.6408 102.546 23.7632 104.749 23.6951V25.5184C101.347 25.8024 99.8097 27.8132 99.8097 31.1191V37.3276H102.414V39.1481H95.3368V37.3276H97.9413V25.5184H95.3368V23.6951H99.8097V26.7993Z" fill="#6D6D6D"/>
<path fill-rule="evenodd" clip-rule="evenodd" d="M112.105 26.3961C113.04 24.4392 115.108 23.4253 117.246 23.4253C118.915 23.4253 121.517 24.3711 122.52 26.3961C123.125 27.6559 123.422 29.0435 123.388 30.4432V37.3277H125.917V39.1482H118.848V37.3277H121.45V31.1192C121.45 29.7701 121.385 28.4182 120.716 27.2055C119.848 25.7854 118.188 25.3168 116.713 25.3168C116.033 25.3189 115.361 25.4639 114.74 25.7426C114.119 26.0213 113.562 26.4276 113.105 26.9357C112.105 28.1512 112.105 29.4321 112.105 30.9118V37.322H114.633V39.1425H107.553V37.322H110.158V25.5185H107.553V23.6951H112.105V26.3961Z" fill="#6D6D6D"/>
<path fill-rule="evenodd" clip-rule="evenodd" d="M134.458 37.6656C133.247 37.6723 132.062 37.3151 131.052 36.6392C130.042 35.9634 129.254 34.9994 128.788 33.8698C128.321 32.7402 128.198 31.4959 128.432 30.295C128.667 29.0941 129.249 27.9909 130.105 27.1253C130.962 26.2597 132.053 25.671 133.241 25.4338C134.429 25.1967 135.66 25.3218 136.778 25.7934C137.895 26.2649 138.849 27.0616 139.517 28.0822C140.186 29.1028 140.539 30.3012 140.533 31.5253C140.519 33.1496 139.875 34.7037 138.739 35.8524C137.603 37.001 136.065 37.6522 134.458 37.6656ZM134.458 39.5543C135.516 39.5551 136.564 39.3439 137.54 38.933C138.517 38.5221 139.403 37.9196 140.148 37.1603C140.893 36.401 141.481 35.5 141.88 34.5094C142.278 33.5188 142.478 32.4582 142.469 31.3889C142.469 27.0038 138.864 23.4366 134.458 23.4366C133.398 23.4165 132.344 23.6102 131.359 24.0065C130.374 24.4027 129.476 24.9935 128.719 25.7444C127.963 26.4952 127.361 27.3911 126.951 28.3795C126.54 29.3679 126.329 30.4291 126.329 31.5011C126.329 32.5731 126.54 33.6343 126.951 34.6227C127.361 35.6112 127.963 36.507 128.719 37.2579C129.476 38.0087 130.374 38.5995 131.359 38.9958C132.344 39.392 133.398 39.5857 134.458 39.5656V39.5543Z" fill="#6D6D6D"/>
<path fill-rule="evenodd" clip-rule="evenodd" d="M151.881 37.7309C150.658 37.7388 149.46 37.3797 148.439 36.699C147.418 36.0184 146.619 35.0468 146.145 33.9073C145.67 32.7678 145.54 31.5116 145.772 30.2976C146.004 29.0837 146.588 27.9666 147.448 27.0878C148.308 26.209 149.407 25.6079 150.606 25.3607C151.804 25.1135 153.048 25.2313 154.18 25.6991C155.312 26.1669 156.282 26.9637 156.966 27.9887C157.65 29.0137 158.018 30.2207 158.023 31.4571C158.032 32.2781 157.88 33.0928 157.575 33.854C157.271 34.6151 156.82 35.3076 156.248 35.8912C155.677 36.4748 154.997 36.9379 154.247 37.2537C153.497 37.5695 152.693 37.7317 151.881 37.7309ZM157.958 39.151H162.431V37.3305H159.902V18.0944H155.353V19.9177H157.958V27.2651C157.355 26.0945 156.443 25.1154 155.323 24.4362C154.203 23.757 152.92 23.4042 151.614 23.4167C147.343 23.4167 143.747 27.1288 143.747 31.4486C143.747 32.934 144.345 34.621 145.081 35.9019C146.486 38.0604 149.296 39.5458 151.69 39.5458C152.963 39.5605 154.216 39.2303 155.32 38.5895C156.424 37.9487 157.338 37.0207 157.966 35.9019V39.1396L157.958 39.151Z" fill="#6D6D6D"/>
<path fill-rule="evenodd" clip-rule="evenodd" d="M189.6 39.1481H185.529L179.12 30.1052H179.921C181.455 30.1052 182.992 30.1052 184.327 29.2929C185.045 28.845 185.637 28.2179 186.046 27.4718C186.456 26.7258 186.669 25.8859 186.664 25.0328C186.664 23.5474 186.195 22.1927 185.127 21.2526C183.86 20.1165 182.523 20.037 180.989 20.037H176.85V37.2055H179.379V39.1623H172.102V37.2055H174.771V20.0512H172.102V18.0944H181.112C183.116 18.0944 184.785 18.296 186.451 19.6479C187.207 20.31 187.81 21.1319 188.217 22.0555C188.625 22.9791 188.826 23.9819 188.808 24.993C188.821 25.8416 188.666 26.6841 188.352 27.4715C188.039 28.2588 187.574 28.975 186.983 29.5783C186.393 30.1815 185.689 30.6597 184.913 30.9847C184.138 31.3098 183.306 31.4752 182.467 31.4713L186.864 37.2055H189.6V39.1623V39.1481Z" fill="#6D6D6D"/>
<path fill-rule="evenodd" clip-rule="evenodd" d="M195.675 37.3276H198.279V39.1481H191.137V37.3276H193.806V25.5184H191.202V23.6951H195.675V37.3276ZM193.806 18.0944H195.675V21.1304H193.806V18.0944Z" fill="#6D6D6D"/>
<path fill-rule="evenodd" clip-rule="evenodd" d="M213.1 28.3529H211.285C210.731 27.4432 209.955 26.6925 209.031 26.1724C208.108 25.6523 207.068 25.3802 206.011 25.3821C204.411 25.3941 202.88 26.0478 201.756 27.1997C200.632 28.3515 200.006 29.9073 200.016 31.5253C200.016 35.0328 202.752 37.6656 206.222 37.6656C208.428 37.5975 210.563 36.3819 211.431 34.3569L213.634 34.2916C212.51 37.5293 209.36 39.5543 206.023 39.5543C201.684 39.5543 198.08 35.9104 198.08 31.602C198.07 29.4581 198.884 27.3941 200.35 25.8451C201.077 25.0861 201.946 24.4813 202.907 24.0658C203.868 23.6503 204.902 23.4326 205.947 23.4253C206.956 23.4171 207.956 23.629 208.877 24.0466C209.798 24.4642 210.62 25.0776 211.285 25.8451V23.6951H213.089V28.3529H213.1Z" fill="#6D6D6D"/>
<path fill-rule="evenodd" clip-rule="evenodd" d="M222.58 25.3168C223.782 25.337 224.951 25.7153 225.942 26.4044C226.932 27.0934 227.699 28.0626 228.147 29.1905C228.595 30.3184 228.704 31.5548 228.459 32.7448C228.215 33.9348 227.629 35.0255 226.774 35.8801C225.919 36.7348 224.834 37.3155 223.654 37.5494C222.474 37.7833 221.252 37.66 220.142 37.195C219.031 36.7301 218.08 35.944 217.41 34.9355C216.739 33.9269 216.377 32.7406 216.37 31.5253C216.381 29.8701 217.041 28.2868 218.205 27.1228C219.369 25.9588 220.942 25.3093 222.58 25.3168ZM228.654 39.1482H233.127V37.3277H230.598V25.5185H233.127V23.6951H228.654V27.0692C227.249 24.709 225.117 23.4253 222.377 23.4253C219.568 23.4253 216.972 24.8454 215.702 27.0692C215.103 28.2052 214.435 29.2305 214.435 31.5253C214.402 33.0959 214.82 34.6425 215.637 35.9786C217.042 38.2053 219.571 39.5543 222.38 39.5543C223.648 39.5825 224.899 39.2654 226.004 38.6363C227.108 38.0071 228.024 37.0891 228.657 35.9786V39.1482H228.654Z" fill="#6D6D6D"/>
<path fill-rule="evenodd" clip-rule="evenodd" d="M239.662 26.7993C240.331 24.6408 242.402 23.7632 244.537 23.6951V25.5184C241.199 25.8024 239.662 27.8132 239.662 31.1191V37.3276H242.191V39.1481H235.13V37.3276H237.732V25.5184H235.13V23.6951H239.662V26.7993Z" fill="#6D6D6D"/>
<path fill-rule="evenodd" clip-rule="evenodd" d="M253.222 37.7309C249.884 37.7309 247.012 34.9647 247.012 31.5253C247.004 30.2889 247.359 29.0779 248.032 28.0454C248.705 27.0129 249.665 26.2054 250.792 25.7252C251.92 25.2449 253.162 25.1134 254.363 25.3474C255.564 25.5813 256.67 26.1702 257.539 27.0395C258.409 27.9088 259.004 29.0193 259.249 30.2306C259.495 31.4419 259.379 32.6995 258.916 33.8442C258.454 34.9889 257.666 35.9692 256.653 36.6611C255.639 37.353 254.445 37.7253 253.222 37.7309ZM259.296 39.151H263.769V37.3305H261.241V18.0944H256.692V19.9177H259.296V27.2651C258.693 26.0947 257.782 25.1157 256.663 24.4365C255.544 23.7573 254.26 23.4044 252.955 23.4167C248.681 23.4167 245.088 27.1288 245.088 31.4486C245.088 32.934 245.689 34.621 246.422 35.9019C247.827 38.0604 250.637 39.5458 253.031 39.5458C254.304 39.5608 255.557 39.2307 256.661 38.5899C257.765 37.949 258.679 37.0208 259.307 35.9019V39.1396L259.296 39.151Z" fill="#6D6D6D"/>
</svg>
