<svg width="194" height="38" viewBox="0 0 194 38" fill="none" xmlns="http://www.w3.org/2000/svg">
<path d="M38.2503 32.9021C56.9583 31.076 75.7789 30.3927 94.5747 30.2827C125.38 29.8966 156.155 32.0528 186.765 35.2494C181.229 35.3575 175.76 34.6703 170.26 34.2649C166.749 33.7167 163.164 34.0487 159.675 33.3712C150.702 33.0585 141.767 32.4273 132.81 32.0875C92.6104 30.7517 52.3271 31.796 12.3015 35.6238C16.3886 34.5178 20.6418 34.6317 24.7958 33.9754C29.2991 33.7823 33.747 33.0102 38.2503 32.9021Z" fill="#6D6D6D"/>
<path d="M60.1328 17.8611C59.8212 18.2269 59.4739 18.5599 59.0962 18.8553C58.7336 19.1212 58.3506 19.3574 57.9508 19.5617C57.1745 19.9958 56.3732 20.3825 55.5513 20.7199C55.2115 20.8589 54.822 20.9631 54.467 20.8242C54.2226 20.7334 53.9859 20.4999 54.0298 20.22C54.0779 20.0069 54.1646 19.8046 54.2856 19.6235C54.7721 18.8708 55.4627 18.2757 56.2748 17.9094C56.7348 17.6932 57.1853 17.4481 57.6626 17.2685C58.1865 17.0861 58.731 16.9707 59.2833 16.9249C59.6292 16.8773 59.9804 16.8857 60.3237 16.95C60.413 16.973 60.4963 17.0151 60.5681 17.0736C60.5394 17.3863 60.3084 17.6237 60.129 17.8631L60.1328 17.8611ZM42.0223 16.3632C42.481 15.8054 43.0047 15.3057 43.582 14.875C43.9083 14.6176 44.2609 14.3962 44.6338 14.2148C44.8897 14.0746 45.1735 13.9941 45.4642 13.9793C45.7091 13.9913 45.9492 14.0523 46.1705 14.1588C46.2725 14.2371 46.3481 14.3453 46.3871 14.4686C46.426 14.5919 46.4264 14.7244 46.3882 14.8479C46.2687 15.0738 46.0816 15.2555 45.8536 15.3672C45.216 15.7243 44.5345 15.9945 43.8702 16.2879C43.2861 16.5177 42.6943 16.7396 42.091 16.9095C41.9828 16.9419 41.8693 16.9524 41.757 16.9404C41.7787 16.7235 41.8707 16.52 42.0185 16.3613L42.0223 16.3632ZM95.6016 20.4284C95.3324 20.2698 95.0201 20.2022 94.7102 20.2354C94.1928 20.2547 93.7213 20.5018 93.2173 20.5829C92.889 20.635 92.5263 20.7103 92.217 20.5578C92.0739 20.4864 92.1063 20.3068 92.1445 20.1833C92.2683 19.8732 92.4258 19.578 92.6141 19.3031C92.91 18.8553 93.1982 18.4016 93.4693 17.9403C93.8296 17.3624 94.1272 16.7469 94.357 16.1046C94.4868 15.676 94.5479 15.1703 94.294 14.7765C94.0401 14.3827 93.5896 14.2283 93.1715 14.1028C92.7905 13.98 92.3964 13.9035 91.9975 13.8751C91.2778 13.9117 90.5963 14.1897 89.9377 14.4715C88.9011 14.9251 87.9142 15.4772 86.9082 16.0003C86.6301 16.1612 86.3389 16.2975 86.0377 16.4076C85.9286 16.4428 85.8133 16.4538 85.6996 16.4398C85.586 16.4258 85.4766 16.3872 85.3791 16.3266C85.0278 16.0718 84.8064 15.6799 84.5563 15.3382C84.3461 15.0597 84.053 14.8567 83.7202 14.7591C83.1475 14.5835 82.5347 14.6703 81.9639 14.8074C80.8787 15.1092 79.838 15.5558 78.8694 16.1354C78.4912 16.3698 78.094 16.5713 77.6821 16.7377C77.5198 16.8033 77.3747 16.6856 77.2564 16.5929C76.7772 16.2069 76.3458 15.7648 75.8437 15.4135C75.5997 15.2189 75.3129 15.0865 75.0076 15.0275C74.6683 15.0222 74.3317 15.0879 74.0187 15.2205C73.5123 15.4205 73.0188 15.6526 72.5412 15.9154C71.8196 16.3015 71.0865 16.6663 70.3726 17.0736C68.6927 18.0175 67.0548 19.0367 65.4092 20.0443C65.0652 20.2734 64.673 20.4182 64.2638 20.4671C63.9598 20.505 63.6524 20.4318 63.3972 20.2605C63.3323 20.2026 63.2464 20.1312 63.2826 20.0347C63.3596 19.7979 63.4688 19.5731 63.6072 19.3668C63.9693 18.7903 64.2975 18.1928 64.5903 17.5774C64.7055 17.3264 64.7703 17.0548 64.7812 16.7782C64.7644 16.6016 64.7104 16.4305 64.6228 16.2767C64.5352 16.1229 64.4161 15.9898 64.2734 15.8864C63.8778 15.5856 63.4334 15.357 62.96 15.2108C62.0424 14.9137 61.0936 14.7264 60.1328 14.653C58.7583 14.5121 57.382 14.8672 56.143 15.4463C55.2901 15.8578 54.4643 16.3246 53.6709 16.8439C53.3731 17.0369 53.1078 17.2666 52.8157 17.4674C51.2096 18.5762 49.4588 19.4539 47.6137 20.0752C46.3287 20.531 45.0073 20.8739 43.664 21.1002C43.2594 21.1713 42.8492 21.2049 42.4385 21.2006C41.8818 21.1518 41.3646 20.8894 40.9934 20.4671C40.7357 20.2007 40.8521 19.7799 41.0545 19.5173C41.2072 19.2876 41.484 19.2201 41.7207 19.1313C43.1677 18.5522 44.6395 18.0638 46.0675 17.4461C46.6256 17.2354 47.1345 16.91 47.5622 16.4906C48.1349 15.9115 48.3258 15.068 48.301 14.2785C48.2949 13.9874 48.225 13.7014 48.0962 13.441C47.9675 13.1806 47.7831 12.9524 47.5565 12.7729C46.9262 12.2537 46.1432 11.9611 45.3306 11.9409C44.6109 11.9409 43.9313 12.2343 43.288 12.5335C42.5842 12.8791 41.9171 13.2963 41.2969 13.7785C40.7555 14.2198 40.2678 14.7246 39.8442 15.2823C39.1646 16.1142 38.5232 16.9829 37.8703 17.8399C37.7932 17.9429 37.7048 18.0368 37.6069 18.1198C37.4822 18.1946 37.347 18.2499 37.206 18.2839C36.513 18.4769 35.8105 18.6371 35.1061 18.7896C34.1344 18.9827 33.1647 19.2162 32.1796 19.3571C33.241 18.0059 33.724 16.2918 33.8061 14.5951C33.7909 14.1063 33.6599 13.6284 33.4243 13.2014C33.0651 12.5796 32.5829 12.0394 32.0078 11.6147C31.2996 11.0829 30.5304 10.6396 29.717 10.2943C29.5328 10.2277 29.3535 10.1477 29.1806 10.055C29.4796 9.69234 29.717 9.28205 29.8831 8.84083C30.1592 8.13069 30.2384 7.35783 30.1122 6.60553C29.9308 5.61143 29.3582 4.73507 28.6556 4.03244C28.1856 3.5624 27.6443 3.17141 27.0521 2.87425C26.0709 2.45731 24.9713 2.47661 23.9347 2.61366C22.4076 2.80669 21.035 3.54407 19.5441 3.88766C19.4329 3.90466 19.3206 3.91305 19.2081 3.91276C19.1623 3.5267 19.3417 3.11168 19.1833 2.72948C19.1289 2.59088 19.0359 2.47119 18.9156 2.38487C18.7954 2.29855 18.653 2.24929 18.5056 2.24304H18.1429C17.7462 2.3027 17.357 2.4056 16.9822 2.54996C16.8506 2.57605 16.733 2.65027 16.652 2.75843C15.7586 4.20809 14.7449 5.59791 13.7446 6.98773C12.6119 8.53198 11.4589 10.0588 10.2855 11.5683C9.73575 12.2497 9.20697 12.9331 8.64573 13.5932C7.67215 14.6588 6.77111 15.7899 5.86434 16.9095C5.10075 17.8476 4.32571 18.7935 3.54302 19.7181C3.20704 20.1042 2.8787 20.5037 2.5179 20.8666C1.94077 21.4701 1.57011 22.2447 1.46033 23.0768V24.8604H2.90542C3.16693 24.8116 3.41383 24.7027 3.62702 24.5419C4.21117 24.1192 4.65978 23.544 5.1542 23.0189C5.40237 22.7294 5.67726 22.4649 5.93688 22.187C6.79974 21.2102 7.61106 20.1891 8.41856 19.166C10.0488 17.0832 11.6333 14.9657 13.1528 12.796C13.7617 11.9582 14.429 11.1654 15.1496 10.4237C16.1318 9.45556 17.175 8.55286 18.2727 7.72125C18.9058 7.20301 19.6003 6.76662 20.3401 6.42215C21.6058 5.81123 22.9378 5.35193 24.3089 5.05357C24.79 4.95898 25.3245 4.90493 25.775 5.15201C26.1568 5.36049 26.3477 5.78708 26.51 6.17893C26.6305 6.45083 26.7344 6.72997 26.8211 7.01476C26.8859 7.41331 26.8458 7.8221 26.7047 8.19997C26.4833 8.83313 26.0629 9.37554 25.5077 9.74421C25.1381 9.94628 24.7432 10.0969 24.3337 10.192C23.2208 10.497 22.0716 10.7094 21.0178 11.2016C20.027 11.655 19.2089 12.422 18.687 13.3867C18.3701 13.9909 18.1715 14.7032 18.3185 15.3865C18.3695 15.585 18.4716 15.7662 18.6144 15.9117C18.7573 16.0572 18.9358 16.1617 19.1318 16.2146C19.8953 16.4617 20.7219 16.369 21.5084 16.2667C21.9451 16.2297 22.3769 16.1475 22.797 16.0216C23.2124 15.8551 23.6123 15.6517 23.992 15.4135C24.7041 14.9831 25.3798 14.4966 26.0613 14.0218C26.3801 13.8017 26.6894 13.545 27.0712 13.4427C27.8615 13.2226 28.7015 13.4755 29.3792 13.9059C29.6123 14.0306 29.8096 14.2141 29.9518 14.4387C30.1441 14.8412 30.1802 15.302 30.053 15.7301C29.8588 16.4567 29.5353 17.1416 29.0985 17.7511C28.8816 18.0953 28.616 18.4055 28.3101 18.6719C27.8716 19.0107 27.3634 19.2456 26.823 19.3591C25.8685 19.5695 24.8816 19.5521 23.908 19.5521C22.6825 19.4266 21.6172 18.7182 20.4318 18.4383C20.1637 18.3578 19.8764 18.3735 19.6185 18.4827C19.4344 18.6059 19.2877 18.7783 19.1947 18.9807C18.97 19.4369 18.8333 19.9321 18.792 20.44C18.7595 21.0037 18.7576 21.5982 19.0058 22.1175C19.2181 22.5055 19.4989 22.8509 19.8343 23.1367C20.5884 23.7869 21.4993 24.2238 22.4744 24.4029C23.3272 24.5583 24.2006 24.5583 25.0534 24.4029C26.0587 24.1997 27.0172 23.8068 27.8787 23.2448C28.4239 22.8886 28.9491 22.5019 29.4517 22.0866C29.6636 21.9244 29.8774 21.7275 30.1561 21.7005C31.2046 21.5851 32.2464 21.4144 33.2773 21.189C34.3253 20.996 35.3543 20.7083 36.3851 20.4381C36.6574 20.3479 36.9424 20.3029 37.2289 20.3049C37.7269 21.3586 38.4752 22.2711 39.407 22.961C39.9931 23.3625 40.6574 23.6945 41.3733 23.7331C41.8677 23.7586 42.3633 23.7405 42.8546 23.6791C44.2319 23.5001 45.5933 23.2129 46.9265 22.8201C48.028 22.5325 49.055 21.9901 50.1889 21.8241C50.3609 21.7909 50.539 21.8167 50.6948 21.8974C51.132 22.1155 51.4909 22.4553 51.8917 22.7313C52.5694 23.2216 53.3788 23.5864 54.2302 23.5459C55.251 23.46 56.2502 23.2002 57.1853 22.7776C58.0119 22.4205 58.7908 21.9688 59.6136 21.6194C59.8388 21.521 60.1194 21.4399 60.3409 21.5905C60.6387 21.799 60.8296 22.1213 61.0625 22.3916C61.2656 22.6695 61.5262 22.8994 61.8261 23.0652C62.2255 23.2218 62.657 23.2761 63.0822 23.2235C63.7418 23.1459 64.3902 22.9905 65.0141 22.7603C66.6997 22.1696 68.2841 21.328 69.8266 20.4304C70.6131 19.969 71.3862 19.4865 72.1804 19.0406C72.5622 18.8282 72.944 18.5734 73.3907 18.4846C73.2246 18.9325 72.8638 19.2568 72.566 19.6216C71.9838 20.2682 71.4741 21.0191 71.2755 21.8839C71.2422 21.9811 71.234 22.0854 71.2517 22.1867C71.2694 22.2881 71.3125 22.3832 71.3767 22.463C71.6325 22.7429 72.0391 22.7583 72.3904 22.7892C72.7811 22.8244 73.1749 22.8004 73.5587 22.7178C74.0264 22.5769 74.3604 22.2005 74.704 21.8762C75.5593 20.9998 76.5901 20.3319 77.6038 19.6563C78.4132 19.1313 79.236 18.6236 80.0855 18.1719C80.4438 17.9614 80.8382 17.8213 81.248 17.7588C81.3364 17.7371 81.4294 17.744 81.5137 17.7787C81.5979 17.8133 81.6693 17.8739 81.7176 17.9519C81.7438 18.0744 81.7401 18.2015 81.7069 18.3222C81.6736 18.4429 81.6118 18.5537 81.5267 18.6448C81.0294 19.2843 80.4973 19.8952 79.9327 20.4748C79.7177 20.6895 79.5222 20.9234 79.3486 21.1735C79.1863 21.4573 79.3486 21.8067 79.5548 22.0229C79.8457 22.2987 80.2126 22.4789 80.6069 22.5395C81.0013 22.6002 81.4045 22.5385 81.7635 22.3626C82.4488 22.0267 83.0024 21.4863 83.5999 21.0114C85.1805 19.7123 86.975 18.7182 88.7541 17.7164C88.9923 17.5677 89.2419 17.4386 89.5005 17.3303C89.5998 17.3052 89.7354 17.2782 89.8117 17.3689C89.877 17.5042 89.8996 17.6565 89.8766 17.8052C89.8418 18.1957 89.7169 18.5725 89.512 18.9054C89.1984 19.4736 88.9682 20.0848 88.8286 20.7199C88.7232 21.1359 88.7278 21.5726 88.842 21.9862C88.9802 22.3901 89.2493 22.7349 89.6055 22.9649C90.1593 23.313 90.7866 23.5239 91.4363 23.5806C91.9088 23.6199 92.3844 23.5641 92.8355 23.4166C93.3453 23.2645 93.842 23.0708 94.3207 22.8375C94.6323 22.691 94.919 22.4955 95.1702 22.2584C95.4903 21.9902 95.7159 21.6246 95.8135 21.216V20.7952C95.786 20.6532 95.7121 20.5247 95.6036 20.4304L95.6016 20.4284Z" fill="#6D6D6D"/>
<path d="M110.118 11.022C110.57 10.9548 111.028 10.9386 111.484 10.9737C112.029 11.0055 112.569 11.0901 113.097 11.2266C113.439 11.293 113.759 11.4442 114.029 11.6667C114.231 11.8752 114.25 12.186 114.264 12.462C114.264 13.0179 114.264 13.5719 114.264 14.1279C113.743 13.6984 113.122 13.4107 112.46 13.292C111.847 13.1706 111.219 13.1472 110.599 13.2225C110.259 13.2433 109.935 13.3679 109.667 13.5796C109.547 13.6971 109.459 13.8448 109.414 14.0076C109.369 14.1704 109.367 14.3425 109.409 14.5062C109.502 14.7681 109.683 14.9892 109.919 15.1316C110.539 15.5293 111.255 15.7223 111.931 16.0099C112.683 16.2615 113.376 16.6676 113.966 17.2028C114.423 17.6611 114.7 18.2716 114.745 18.9208C114.77 19.3317 114.749 19.7441 114.684 20.1504C114.592 20.5741 114.415 20.9743 114.165 21.3265C113.914 21.6786 113.595 21.9754 113.227 22.1985C112.326 22.7583 111.263 22.9706 110.221 23.0517C109.048 23.0748 107.852 23.0806 106.714 22.7467C106.563 22.712 106.422 22.645 106.299 22.55C106.177 22.4551 106.076 22.3345 106.004 22.1965C105.919 21.9356 105.876 21.6624 105.878 21.3877C105.878 20.8955 105.878 20.4033 105.878 19.911C106.685 20.4535 107.657 20.6832 108.609 20.7951C109.197 20.7951 109.804 20.8666 110.373 20.6755C110.674 20.6024 110.937 20.4187 111.11 20.1601C111.214 19.9842 111.267 19.7822 111.263 19.5774C111.258 19.3725 111.197 19.173 111.085 19.0019C110.95 18.817 110.773 18.668 110.568 18.5676C109.472 17.946 108.201 17.7047 107.147 17.0021C106.674 16.6895 106.301 16.2432 106.076 15.7184C105.812 14.9927 105.804 14.1972 106.051 13.4658C106.315 12.7751 106.81 12.1995 107.449 11.8385C108.271 11.3755 109.183 11.0989 110.121 11.0278L110.118 11.022Z" fill="#8E8E8E"/>
<path d="M136.75 11.2864C137.346 11.1727 137.955 11.1493 138.557 11.217C139.183 11.2453 139.798 11.4002 140.363 11.6725C140.976 11.9615 141.47 12.4579 141.759 13.0758C142.07 13.6916 142.141 14.3904 142.164 15.0718C142.164 16.2403 142.164 17.4087 142.164 18.5772C142.164 19.2181 142.221 19.857 142.206 20.5075C142.206 20.8029 142.253 21.0982 142.255 21.3935C142.255 21.8394 142.36 22.2776 142.374 22.7254C141.621 22.7254 140.871 22.7254 140.119 22.7254C139.828 22.7383 139.543 22.6473 139.312 22.4683C139.081 22.2893 138.92 22.0339 138.857 21.7468C138.727 21.3279 138.769 20.8878 138.764 20.4573C138.764 19.0598 138.764 17.6642 138.764 16.2666C138.806 15.6592 138.722 15.0494 138.515 14.4772C138.432 14.2649 138.305 14.0725 138.144 13.9124C137.982 13.7522 137.79 13.6277 137.578 13.5468C136.731 13.2206 135.78 13.3094 134.936 13.6009C134.936 15.6374 134.936 17.6719 134.936 19.7084C134.936 20.2875 134.984 20.8666 134.984 21.4456C134.961 21.8722 135.051 22.295 135.039 22.7235C133.846 22.7235 132.657 22.7235 131.466 22.7235C131.494 22.268 131.553 21.8143 131.542 21.3549C131.662 19.8898 131.632 18.4209 131.636 16.9538C131.636 15.7068 131.662 14.4579 131.548 13.2129C131.536 12.6161 131.479 12.0212 131.378 11.4332C132.078 11.4332 132.781 11.4332 133.478 11.4332C133.823 11.4544 134.211 11.4988 134.465 11.7652C134.581 11.893 134.67 12.0443 134.724 12.2091C135.322 11.7579 136.01 11.4449 136.74 11.2922L136.75 11.2864Z" fill="#8E8E8E"/>
<path d="M153.291 11.4313C153.71 11.4143 154.128 11.3712 154.541 11.302C154.409 11.8541 154.243 12.3975 154.045 12.9293C153.986 13.0919 153.894 13.24 153.774 13.3638C153.654 13.4876 153.51 13.5843 153.35 13.6473C152.979 13.7643 152.593 13.8229 152.205 13.8211C151.653 13.8384 151.1 13.8211 150.55 13.8307C150.559 15.873 150.519 17.9152 150.596 19.9556C150.581 20.4476 150.595 20.9401 150.639 21.4303C150.634 21.8604 150.667 22.29 150.739 22.714C149.525 22.714 148.309 22.714 147.094 22.714C147.094 22.3144 147.177 21.9206 147.152 21.521C147.194 20.9825 147.207 20.4401 147.24 19.9015C147.24 17.8747 147.24 15.8492 147.24 13.8249C146.619 13.8249 145.999 13.8249 145.378 13.8404C144.869 13.9156 144.332 13.9485 143.872 14.2129C143.872 13.6106 143.872 13.0084 143.872 12.4061C143.864 12.2461 143.898 12.0867 143.972 11.945C144.046 11.8032 144.157 11.6844 144.292 11.6012C144.623 11.4731 144.976 11.4121 145.331 11.4217C147.978 11.4217 150.628 11.4217 153.278 11.4217L153.291 11.4313Z" fill="#8E8E8E"/>
<path d="M171.287 11.4216C171.936 11.3811 172.589 11.3792 173.238 11.3811C173.887 11.383 174.574 11.3656 175.238 11.3811C176.168 11.4583 177.147 11.6764 177.865 12.3173C178.201 12.6207 178.452 13.0072 178.594 13.4388C178.885 14.431 178.806 15.5756 178.199 16.4346C177.94 16.7801 177.625 17.0796 177.268 17.3206C177.189 17.3785 177.077 17.4635 177.146 17.5735C177.313 17.8764 177.498 18.1685 177.701 18.4479C178.769 20.0786 179.954 21.6271 181.248 23.0807C180.988 23.1481 180.724 23.1964 180.458 23.2254C179.764 23.3464 179.061 23.3923 178.358 23.3625C177.881 23.3566 177.426 23.1635 177.088 22.8239C176.81 22.5103 176.554 22.1761 176.325 21.824C175.714 20.9284 175.179 19.9825 174.63 19.0521C174.4 18.6429 174.15 18.2453 173.946 17.8206C173.891 17.7195 173.856 17.6088 173.843 17.4944C173.87 17.3226 174.034 17.2454 174.169 17.1624C174.654 16.8574 175.124 16.4617 175.315 15.898C175.448 15.5088 175.484 15.0926 175.422 14.6858C175.364 14.3003 175.158 13.9534 174.849 13.7206C174.42 13.4176 173.874 13.404 173.372 13.4407C173.102 13.4509 172.835 13.4937 172.575 13.5681C172.575 15.5486 172.575 17.5291 172.589 19.5096C172.617 20.052 172.638 20.5944 172.633 21.1369C172.663 21.6619 172.722 22.1869 172.747 22.7139C171.573 22.7139 170.401 22.7139 169.229 22.7139C169.265 22.5055 169.284 22.2943 169.286 22.0827C169.307 21.6368 169.374 21.1928 169.376 20.745C169.376 19.6274 169.435 18.5097 169.42 17.3921C169.42 16.6528 169.435 15.9115 169.399 15.1722C169.372 14.3518 169.399 13.5295 169.3 12.7149C169.278 12.2819 169.23 11.8507 169.156 11.4236C169.863 11.4371 170.569 11.439 171.274 11.4236L171.287 11.4216Z" fill="#8E8E8E"/>
<path d="M179.916 11.4834C180.236 11.412 180.567 11.4409 180.891 11.3927C181.445 11.3695 182 11.3792 182.554 11.3753C183.022 11.3534 183.486 11.4694 183.89 11.7092C184.2 11.9428 184.45 12.2471 184.621 12.5972C185.263 13.7727 185.847 14.98 186.37 16.2146C186.782 15.2629 187.217 14.3229 187.685 13.3963C187.864 13.0155 188.07 12.6479 188.3 12.2961C188.561 11.8941 188.951 11.596 189.405 11.4525C189.903 11.3174 190.428 11.3888 190.932 11.3772C191.278 11.3599 191.62 11.4274 191.963 11.4313C192.092 11.4401 192.219 11.4581 192.345 11.4853C191.994 11.8366 191.671 12.2155 191.379 12.6184C190.285 14.1561 189.281 15.7578 188.374 17.4152C188.071 17.933 187.894 18.5156 187.855 19.1158C187.855 19.7065 187.838 20.2991 187.886 20.8898C187.91 21.2179 187.886 21.548 187.929 21.8742C187.971 22.1541 187.989 22.434 188.029 22.712C186.818 22.712 185.608 22.712 184.402 22.712C184.402 22.4302 184.47 22.1561 184.495 21.8781C184.509 21.2025 184.591 20.5269 184.553 19.8551C184.526 19.5752 184.585 19.2934 184.528 19.0174C184.461 18.6917 184.357 18.3749 184.218 18.0735C183.749 17.062 183.195 16.093 182.63 15.1336C181.834 13.8384 180.985 12.5566 179.908 11.4776L179.916 11.4834Z" fill="#8E8E8E"/>
<path d="M117.129 11.4274H119.241C119.66 11.4274 120.119 11.551 120.386 11.8926C120.653 12.2343 120.735 12.7497 120.728 13.2033C120.728 14.6665 120.728 16.1297 120.728 17.5928C120.739 18.2279 120.703 18.8784 120.919 19.4884C120.99 19.7704 121.134 20.0285 121.335 20.2371C121.536 20.4456 121.787 20.5975 122.064 20.6775C122.535 20.8473 123.041 20.8165 123.532 20.8049C123.888 20.7767 124.238 20.6941 124.57 20.5597C124.57 18.7472 124.57 16.9327 124.559 15.122C124.559 14.5816 124.58 14.0391 124.528 13.4987C124.528 13.1126 124.513 12.742 124.479 12.3636C124.482 12.0541 124.466 11.7446 124.431 11.4371C125.626 11.4139 126.823 11.4371 128.02 11.4274C128.02 11.8232 127.945 12.215 127.961 12.6126C127.917 13.0713 127.902 13.5322 127.915 13.9928C127.861 15.8826 127.846 17.7743 127.915 19.6602C127.881 20.1563 127.963 20.6466 127.963 21.1407C127.984 21.6677 128.07 22.1928 128.113 22.7197H125.918C125.613 22.7323 125.313 22.6397 125.067 22.4572C124.924 22.3278 124.826 22.1562 124.786 21.9669C123.788 22.7022 122.568 23.0651 121.335 22.9938C120.451 22.9494 119.531 22.8008 118.78 22.297C118.206 21.9093 117.779 21.3344 117.572 20.6678C117.434 20.2158 117.357 19.747 117.343 19.2741C117.343 18.1044 117.343 16.9365 117.343 15.7687C117.333 15.1607 117.364 14.5507 117.305 13.9446C117.257 13.1068 117.236 12.2652 117.125 11.4352L117.129 11.4274Z" fill="#8E8E8E"/>
<path d="M163.26 17.8322C163.239 18.313 163.145 18.7876 162.981 19.2394C162.839 19.6531 162.59 20.0205 162.259 20.303C161.881 20.5957 161.42 20.7592 160.944 20.7701C160.368 20.8242 159.789 20.6888 159.295 20.3841C158.854 20.0766 158.529 19.6277 158.373 19.1101C158.17 18.4788 158.081 17.8159 158.109 17.1528C158.091 16.7922 158.101 16.4307 158.14 16.0718C158.176 15.4144 158.373 14.7764 158.713 14.2148C158.882 13.9572 159.104 13.739 159.363 13.5749C159.623 13.4108 159.914 13.3045 160.217 13.2632C160.704 13.2304 161.213 13.2014 161.677 13.3829C162.181 13.5775 162.591 13.9604 162.823 14.4523C163.014 14.8667 163.143 15.3079 163.204 15.761C163.296 16.4495 163.309 17.1464 163.245 17.838L163.26 17.8322ZM165.932 13.7631C165.564 13.0258 165.003 12.4048 164.31 11.968C163.532 11.5137 162.667 11.2339 161.773 11.1476C161.202 11.081 160.627 11.0726 160.055 11.1225C158.833 11.2074 157.586 11.5761 156.636 12.3849C155.757 13.1592 155.167 14.2133 154.961 15.373C154.771 16.1451 154.813 16.952 154.816 17.7434C154.843 18.81 155.136 19.8525 155.668 20.774C156.207 21.6518 157.027 22.3166 157.991 22.658C159.073 23.0788 160.255 23.1097 161.399 23.044C162.271 22.985 163.121 22.7431 163.895 22.3337C164.668 21.9126 165.312 21.2866 165.759 20.5231C166.314 19.5206 166.607 18.3908 166.608 17.2415C166.635 16.0583 166.492 14.8325 165.951 13.767L165.932 13.7631Z" fill="#8E8E8E"/>
</svg>
