<svg width="150" height="40" viewBox="0 0 150 40" fill="none" xmlns="http://www.w3.org/2000/svg">
<path d="M1.19851 25V14.0909H2.84446V23.5831H7.78764V25H1.19851ZM15.3137 25.1651C14.5076 25.1651 13.8134 24.9929 13.231 24.6484C12.6522 24.3004 12.2047 23.8121 11.8887 23.1836C11.5762 22.5515 11.4199 21.8111 11.4199 20.9624C11.4199 20.1243 11.5762 19.3857 11.8887 18.7464C12.2047 18.1072 12.6451 17.6083 13.2097 17.2496C13.7779 16.891 14.4419 16.7116 15.2019 16.7116C15.6635 16.7116 16.111 16.788 16.5442 16.9407C16.9775 17.0934 17.3663 17.3331 17.7108 17.6598C18.0552 17.9865 18.3269 18.4109 18.5257 18.9329C18.7246 19.4513 18.824 20.0817 18.824 20.8239V21.3885H12.3201V20.1953H17.2633C17.2633 19.7763 17.1781 19.4052 17.0076 19.082C16.8372 18.7553 16.5975 18.4979 16.2885 18.3097C15.9831 18.1214 15.6245 18.0273 15.2125 18.0273C14.7651 18.0273 14.3745 18.1374 14.0407 18.3576C13.7104 18.5742 13.4547 18.8583 13.2736 19.2099C13.0961 19.5579 13.0073 19.9361 13.0073 20.3445V21.2766C13.0073 21.8235 13.1032 22.2887 13.2949 22.6722C13.4902 23.0558 13.7619 23.3487 14.1099 23.5511C14.4579 23.75 14.8645 23.8494 15.3297 23.8494C15.6316 23.8494 15.9068 23.8068 16.1554 23.7216C16.4039 23.6328 16.6188 23.5014 16.7999 23.3274C16.981 23.1534 17.1195 22.9386 17.2154 22.6829L18.7228 22.9545C18.6021 23.3984 18.3855 23.7873 18.073 24.1211C17.764 24.4513 17.3752 24.7088 16.9064 24.8935C16.4412 25.0746 15.9103 25.1651 15.3137 25.1651ZM26.6604 16.8182V18.0966H22.1913V16.8182H26.6604ZM23.3898 14.858H24.9825V22.5977C24.9825 22.9066 25.0287 23.1392 25.121 23.2955C25.2133 23.4482 25.3323 23.5529 25.4779 23.6097C25.627 23.663 25.7886 23.6896 25.9626 23.6896C26.0905 23.6896 26.2023 23.6808 26.2982 23.663C26.3941 23.6452 26.4687 23.631 26.5219 23.6204L26.8096 24.9361C26.7172 24.9716 26.5858 25.0071 26.4154 25.0426C26.2449 25.0817 26.0319 25.103 25.7762 25.1065C25.3572 25.1136 24.9665 25.0391 24.6043 24.8828C24.2421 24.7266 23.9491 24.4851 23.7254 24.1584C23.5017 23.8317 23.3898 23.4215 23.3898 22.9279V14.858ZM32.4513 14.0909V15.1136C32.4513 15.4155 32.3945 15.7333 32.2809 16.0671C32.1708 16.3974 32.0146 16.7152 31.8121 17.0206C31.6097 17.326 31.3718 17.5888 31.0984 17.8089L30.31 17.2443C30.5195 16.9389 30.7006 16.614 30.8533 16.2695C31.0096 15.9251 31.0877 15.5451 31.0877 15.1296V14.0909H32.4513ZM41.3384 18.8157L39.8949 19.0714C39.8345 18.8867 39.7386 18.7109 39.6072 18.544C39.4794 18.3771 39.3054 18.2404 39.0852 18.1339C38.8651 18.0273 38.5898 17.9741 38.2596 17.9741C37.8086 17.9741 37.4322 18.0753 37.1303 18.2777C36.8285 18.4766 36.6776 18.734 36.6776 19.0501C36.6776 19.3235 36.7788 19.5437 36.9812 19.7106C37.1836 19.8775 37.5103 20.0142 37.9613 20.1207L39.261 20.419C40.0138 20.593 40.5749 20.8612 40.9442 21.2234C41.3136 21.5856 41.4982 22.0561 41.4982 22.6349C41.4982 23.125 41.3562 23.5618 41.0721 23.9453C40.7915 24.3253 40.3991 24.6236 39.8949 24.8402C39.3942 25.0568 38.8136 25.1651 38.1531 25.1651C37.2369 25.1651 36.4893 24.9698 35.9105 24.5792C35.3317 24.185 34.9766 23.6257 34.8452 22.9013L36.3846 22.6669C36.4805 23.0682 36.6776 23.3718 36.9759 23.5778C37.2741 23.7802 37.663 23.8814 38.1424 23.8814C38.6644 23.8814 39.0817 23.7731 39.3942 23.5565C39.7067 23.3363 39.8629 23.0682 39.8629 22.7521C39.8629 22.4964 39.767 22.2816 39.5753 22.1076C39.3871 21.9336 39.0977 21.8022 38.707 21.7134L37.3221 21.4098C36.5586 21.2358 35.994 20.9588 35.6282 20.5788C35.266 20.1989 35.0849 19.7177 35.0849 19.1353C35.0849 18.6523 35.2198 18.2298 35.4897 17.8675C35.7596 17.5053 36.1325 17.223 36.6083 17.0206C37.0842 16.8146 37.6293 16.7116 38.2436 16.7116C39.1278 16.7116 39.8239 16.9034 40.3317 17.2869C40.8395 17.6669 41.1751 18.1765 41.3384 18.8157ZM51.3089 15.5078V14.0909H59.7518V15.5078H56.348V25H54.7074V15.5078H51.3089ZM65.0074 25.1811C64.4889 25.1811 64.0202 25.0852 63.6011 24.8935C63.1821 24.6982 62.8501 24.4158 62.605 24.0465C62.3635 23.6772 62.2428 23.2244 62.2428 22.6882C62.2428 22.2266 62.3316 21.8466 62.5091 21.5483C62.6867 21.25 62.9264 21.0138 63.2282 20.8398C63.5301 20.6658 63.8675 20.5344 64.2403 20.4457C64.6132 20.3569 64.9932 20.2894 65.3802 20.2433C65.8703 20.1864 66.268 20.1403 66.5734 20.1048C66.8788 20.0657 67.1008 20.0036 67.2393 19.9183C67.3778 19.8331 67.447 19.6946 67.447 19.5028V19.4656C67.447 19.0004 67.3156 18.6399 67.0528 18.3842C66.7936 18.1286 66.4065 18.0007 65.8916 18.0007C65.3554 18.0007 64.9328 18.1197 64.6238 18.3576C64.3184 18.592 64.1072 18.853 63.99 19.1406L62.4932 18.7997C62.6707 18.3026 62.93 17.9013 63.2709 17.5959C63.6153 17.2869 64.0113 17.0632 64.4587 16.9247C64.9062 16.7827 65.3767 16.7116 65.8703 16.7116C66.197 16.7116 66.5432 16.7507 66.909 16.8288C67.2783 16.9034 67.6228 17.0419 67.9424 17.2443C68.2655 17.4467 68.5301 17.7362 68.7361 18.1126C68.942 18.4854 69.045 18.9702 69.045 19.5668V25H67.4896V23.8814H67.4257C67.3227 24.0874 67.1682 24.2898 66.9623 24.4886C66.7563 24.6875 66.4917 24.8526 66.1686 24.984C65.8454 25.1154 65.4584 25.1811 65.0074 25.1811ZM65.3536 23.9027C65.7939 23.9027 66.1704 23.8157 66.4829 23.6417C66.7989 23.4677 67.0386 23.2404 67.202 22.9599C67.3689 22.6758 67.4523 22.3722 67.4523 22.049V20.9943C67.3955 21.0511 67.2854 21.1044 67.1221 21.1541C66.9623 21.2003 66.7794 21.2411 66.5734 21.2766C66.3675 21.3086 66.1668 21.3388 65.9715 21.3672C65.7762 21.392 65.6128 21.4134 65.4814 21.4311C65.1725 21.4702 64.8902 21.5359 64.6345 21.6282C64.3824 21.7205 64.18 21.8537 64.0273 22.0277C63.8781 22.1982 63.8035 22.4254 63.8035 22.7095C63.8035 23.1037 63.9491 23.402 64.2403 23.6044C64.5315 23.8033 64.9026 23.9027 65.3536 23.9027ZM75.0091 14.0909V25H73.4164V14.0909H75.0091ZM80.8666 22.2248L80.8559 20.2805H81.1329L84.3928 16.8182H86.2998L82.5818 20.7599H82.3314L80.8666 22.2248ZM79.4017 25V14.0909H80.9944V25H79.4017ZM84.5686 25L81.6389 21.1115L82.7362 19.9982L86.5235 25H84.5686Z" fill="#212024"/>
<circle cx="130" cy="20" r="20" fill="#212024"/>
<path d="M122 13H139V15.5H122V13Z" fill="white"/>
<path d="M122 19H135V21.5H122V19Z" fill="white"/>
<path d="M122 25H139V27.5H122V25Z" fill="white"/>
</svg>
