<svg width="227" height="48" viewBox="0 0 227 48" fill="none" xmlns="http://www.w3.org/2000/svg">
<g clip-path="url(#clip0_403_3)">
<path d="M30.1037 36.483L30.0948 36.4901L18.1399 43.5058L17.0239 44.1594L13.9757 45.9483C13.8586 46.0174 13.7398 46.0847 13.6191 46.1502C13.3281 46.3061 13.0318 46.446 12.7355 46.5682C12.292 46.7542 11.8431 46.9012 11.3889 47.011C10.6756 47.1881 9.95884 47.2732 9.24382 47.2732C6.66584 47.2732 4.16237 46.1484 2.32779 44.0159C-0.612139 40.6028 -0.780693 35.9092 1.90552 32.3349L7.77297 24.4584L8.51106 23.4665L9.34495 22.3489C9.74416 21.8175 10.3368 21.5182 10.9524 21.481C11.4439 21.4509 11.9496 21.5873 12.3754 21.9025C13.1631 22.4888 13.4417 23.509 13.1135 24.3858C13.046 24.5753 12.9485 24.7577 12.8207 24.9278L11.2097 27.0904L10.4716 28.0822L5.37596 34.9191C3.59816 37.2854 4.39302 39.7775 5.61193 41.1944C6.84504 42.6273 9.05752 43.6812 11.5681 42.3368C11.6391 42.2996 11.7083 42.2607 11.7775 42.2199L14.139 40.8331L15.2372 40.1884L19.6232 37.6131L20.6718 36.9967L27.9604 32.7192L27.9799 32.7086C28.6594 33.9059 29.4561 35.3282 30.1037 36.483Z" fill="#1D899A"/>
<path d="M10.2889 28.3266L7.59027 24.7028L9.16226 22.5915C9.56146 22.0602 10.1541 21.7608 10.7697 21.7236L12.9308 24.6284C12.8633 24.8179 12.7658 25.0003 12.638 25.1704L10.2889 28.3266Z" fill="#146970"/>
<path d="M12.6202 45.5959C12.5085 45.479 12.4073 45.3479 12.3222 45.2027C11.7154 44.1736 12.0596 42.847 13.094 42.243C14.3413 41.5115 15.2994 40.6844 15.9611 39.7669L20.3471 37.1916L20.7747 36.9401L21.3957 36.5752C21.385 37.2288 21.3087 37.9036 21.1579 38.589C20.7871 40.2504 20.0189 41.7524 18.862 43.0826L17.746 43.7361L15.4431 45.0876L14.6979 45.525C14.6003 45.5817 14.5027 45.6366 14.4034 45.6915L12.6202 45.5959Z" fill="#146970"/>
<path d="M42.559 23.6365C42.559 24.5699 41.9646 25.367 41.1343 25.6699C41.1325 25.6699 41.1307 25.6699 41.1307 25.6716C40.9018 25.7531 40.6517 25.7992 40.3944 25.7992C39.1985 25.7992 38.228 24.8303 38.228 23.6365C38.228 21.7183 37.2398 19.9932 35.5826 19.019L11.774 5.04782C11.7048 5.00886 11.6338 4.96812 11.5611 4.93093C9.80809 3.99042 8.20062 4.22245 6.97107 4.93447C6.44057 5.24088 5.98104 5.6394 5.61022 6.0698C4.39131 7.48322 3.59822 9.97352 5.36715 12.331L17.8614 29.1113C17.9874 29.2937 20.9397 33.6544 19.8486 38.5606C19.1797 41.5663 17.2049 44.0513 13.9776 45.943C13.8711 46.005 13.7611 46.0599 13.6476 46.0988C13.3992 46.1962 13.1401 46.2423 12.8829 46.2423C12.1395 46.2423 11.4156 45.8615 11.0128 45.176C10.4415 44.2072 10.7147 42.9727 11.6107 42.3279C11.6107 42.3262 11.6107 42.3262 11.6125 42.3262C11.6675 42.2872 11.7225 42.25 11.7811 42.2164C11.9159 42.1384 12.0454 42.0587 12.1714 41.979C12.182 41.9719 12.1909 41.9666 12.1998 41.9613C14.0858 40.7551 15.2337 39.3081 15.6117 37.652C16.2717 34.7508 14.4939 31.8797 14.3005 31.5803L1.89671 14.9187C-0.780631 11.3515 -0.610303 6.66138 2.32608 3.25183C3.09788 2.35738 3.985 1.64004 4.9502 1.11046C7.58851 -0.345466 10.7786 -0.398602 13.6121 1.11931C13.731 1.18485 13.8498 1.25038 13.9669 1.32123L37.7756 15.2924C40.7705 17.0494 42.559 20.1685 42.559 23.6365Z" fill="#1CAA68"/>
<path d="M42.559 23.6366C42.559 27.0054 40.8699 30.0465 38.0258 31.8283L38.0151 31.8407L37.7738 31.9842L29.5856 36.7895C28.938 35.6346 28.1574 34.2 27.4814 33.0044L35.5773 28.2523C37.2344 27.2817 38.2245 25.5565 38.2245 23.6383C38.2245 22.4428 39.1932 21.4757 40.3908 21.4757C41.5884 21.4739 42.559 22.441 42.559 23.6366Z" fill="url(#paint0_linear_403_3)"/>
</g>
<g clip-path="url(#clip1_403_3)">
<path d="M66.2947 31.5751C66.1193 31.6498 65.874 31.7196 65.5605 31.783C65.2454 31.8447 64.901 31.8772 64.5241 31.8772C63.7948 31.8772 63.2555 31.7391 62.9046 31.463C62.5521 31.1868 62.3767 30.7223 62.3767 30.0693V17.7126C62.3767 17.0855 62.5018 16.5771 62.7536 16.1873C63.0037 15.7974 63.4066 15.4287 63.9589 15.0762C64.6866 14.6246 65.6157 14.2477 66.7463 13.9456C67.8769 13.6435 69.1195 13.494 70.4759 13.494C72.6851 13.494 73.7913 14.1227 73.7913 15.3783C73.7913 15.6804 73.7409 15.9615 73.6402 16.2262C73.5395 16.4894 73.4274 16.7217 73.3007 16.9231C73.0489 16.8727 72.7354 16.8224 72.3586 16.772C71.9817 16.7217 71.5805 16.6973 71.1533 16.6973C70.1478 16.6973 69.2316 16.8045 68.4032 17.0173C67.5747 17.2317 66.8714 17.5014 66.2931 17.8279V31.5751H66.2947Z" fill="#211E1F"/>
<path d="M83.4353 24.8322C83.7862 26.2633 84.4716 27.3256 85.4885 28.016C86.5054 28.7063 87.8049 29.0523 89.387 29.0523C90.4413 29.0523 91.4078 28.8899 92.2882 28.5634C93.167 28.2369 93.8703 27.886 94.3983 27.5092C95.1016 27.912 95.4525 28.4757 95.4525 29.205C95.4525 29.6322 95.2884 30.0286 94.9619 30.3924C94.6354 30.7563 94.1904 31.0698 93.6251 31.3346C93.0598 31.5977 92.3938 31.8057 91.6287 31.9567C90.862 32.1078 90.04 32.1825 89.1613 32.1825C87.7042 32.1825 86.3787 31.9811 85.1864 31.5799C83.9925 31.1786 82.9691 30.576 82.1163 29.7719C81.2619 28.9679 80.6024 27.977 80.1378 26.7961C79.6732 25.6151 79.4409 24.2474 79.4409 22.6896C79.4409 21.1822 79.6667 19.8583 80.1183 18.7147C80.5699 17.5728 81.1855 16.6176 81.9636 15.8509C82.7417 15.0858 83.6595 14.5011 84.7137 14.0998C85.7679 13.6986 86.8985 13.4972 88.1038 13.4972C89.3091 13.4972 90.4072 13.6921 91.3997 14.0803C92.3922 14.4702 93.245 15.0095 93.9613 15.6999C94.6777 16.3902 95.23 17.2138 95.6182 18.1673C96.008 19.1224 96.2013 20.1637 96.2013 21.2943C96.2013 21.9229 96.0503 22.381 95.7498 22.6685C95.4493 22.9576 95.009 23.1525 94.4308 23.2516L83.4353 24.8322ZM88.107 16.5445C86.7263 16.5445 85.5762 17.0091 84.6601 17.9383C83.7423 18.8674 83.2599 20.1978 83.2095 21.931L92.4766 20.612C92.3759 19.4814 91.9617 18.5214 91.234 17.7303C90.5046 16.9393 89.4634 16.5445 88.107 16.5445Z" fill="#211E1F"/>
<path d="M111.99 32.1778C111.186 32.1778 110.433 32.0965 109.731 31.9325C109.027 31.7684 108.425 31.5621 107.923 31.3103V38.3927C107.747 38.4674 107.502 38.5372 107.189 38.6006C106.875 38.6623 106.529 38.6948 106.152 38.6948C105.423 38.6948 104.884 38.5567 104.533 38.2806C104.18 38.0044 104.005 37.5269 104.005 36.8495V17.3731C104.005 16.8208 104.106 16.3741 104.305 16.0362C104.507 15.6967 104.882 15.3653 105.436 15.0372C106.139 14.636 106.999 14.2786 108.017 13.9635C109.034 13.65 110.184 13.4924 111.464 13.4924C112.77 13.4924 113.988 13.6744 115.119 14.0382C116.25 14.4021 117.229 14.9609 118.057 15.7146C118.886 16.4683 119.539 17.4283 120.016 18.5963C120.492 19.7642 120.733 21.1514 120.733 22.7596C120.733 24.3417 120.514 25.7176 120.073 26.8839C119.633 28.0518 119.03 29.0313 118.265 29.8224C117.499 30.6135 116.583 31.2031 115.515 31.593C114.445 31.9828 113.27 32.1778 111.99 32.1778ZM111.388 28.9761C113.02 28.9761 114.313 28.4807 115.268 27.4882C116.224 26.4957 116.699 24.92 116.699 22.7612C116.699 21.6566 116.561 20.7145 116.285 19.9364C116.009 19.1583 115.639 18.5232 115.174 18.0342C114.71 17.5453 114.157 17.1928 113.517 16.98C112.877 16.7672 112.192 16.66 111.464 16.66C110.66 16.66 109.976 16.7542 109.411 16.9426C108.846 17.1311 108.35 17.3504 107.923 17.6021V27.9625C108.35 28.2646 108.852 28.5083 109.43 28.6967C110.005 28.8819 110.658 28.9761 111.388 28.9761Z" fill="#211E1F"/>
<path d="M132.633 15.1135H139.753C139.853 15.2646 139.948 15.4709 140.035 15.7357C140.123 15.9988 140.167 16.3074 140.167 16.6583C140.167 17.7125 139.689 18.2405 138.736 18.2405H132.747V31.5767C132.571 31.6514 132.326 31.7212 132.013 31.7846C131.699 31.8463 131.353 31.8788 130.976 31.8788C130.247 31.8788 129.708 31.7407 129.357 31.4646C129.004 31.1884 128.829 30.7239 128.829 30.0709V12.8897C128.829 11.7348 128.998 10.7423 129.337 9.91385C129.677 9.08541 130.159 8.40642 130.788 7.88012C131.415 7.35219 132.175 6.96396 133.067 6.71218C133.959 6.46203 134.945 6.33533 136.025 6.33533C137.581 6.33533 138.775 6.53675 139.603 6.93797C140.432 7.34082 140.846 7.90448 140.846 8.63383C140.846 8.98633 140.776 9.29334 140.64 9.55649C140.502 9.81964 140.331 10.0519 140.131 10.2533C139.654 10.0519 139.101 9.87649 138.474 9.72542C137.846 9.57436 137.206 9.49963 136.553 9.49963C135.146 9.49963 134.142 9.77578 133.539 10.3281C132.937 10.8804 132.635 11.7851 132.635 13.0408V15.1135H132.633Z" fill="#211E1F"/>
<path d="M163.75 22.8359C163.75 24.267 163.537 25.5616 163.11 26.7166C162.683 27.8715 162.086 28.851 161.32 29.6551C160.553 30.4592 159.617 31.0813 158.513 31.5199C157.408 31.9585 156.177 32.1794 154.821 32.1794C153.464 32.1794 152.233 31.9601 151.128 31.5199C150.022 31.0813 149.088 30.4592 148.321 29.6551C147.555 28.851 146.959 27.8715 146.531 26.7166C146.104 25.5616 145.891 24.2686 145.891 22.8359C145.891 21.4048 146.104 20.1118 146.531 18.9552C146.959 17.8003 147.561 16.8208 148.339 16.0167C149.117 15.2127 150.06 14.5921 151.164 14.1519C152.269 13.7133 153.487 13.4924 154.817 13.4924C156.148 13.4924 157.366 13.7117 158.472 14.1519C159.577 14.5921 160.519 15.2192 161.297 16.0362C162.075 16.8533 162.678 17.8328 163.105 18.9747C163.537 20.1167 163.75 21.4048 163.75 22.8359ZM154.822 16.6567C153.315 16.6567 152.123 17.1977 151.244 18.2763C150.365 19.3565 149.925 20.8753 149.925 22.8343C149.925 24.7933 150.352 26.3072 151.206 27.3744C152.059 28.4417 153.264 28.9761 154.822 28.9761C156.38 28.9761 157.585 28.4433 158.438 27.3744C159.291 26.3072 159.72 24.7933 159.72 22.8343C159.72 20.9013 159.286 19.3873 158.42 18.2941C157.553 17.2042 156.354 16.6567 154.822 16.6567Z" fill="#211E1F"/>
<path d="M175.692 31.5751C175.517 31.6498 175.272 31.7196 174.958 31.783C174.645 31.8447 174.299 31.8772 173.922 31.8772C173.192 31.8772 172.653 31.7391 172.302 31.463C171.95 31.1868 171.774 30.7223 171.774 30.0693V17.7126C171.774 17.0855 171.899 16.5771 172.151 16.1873C172.401 15.7974 172.804 15.4287 173.356 15.0762C174.084 14.6246 175.013 14.2477 176.144 13.9456C177.274 13.6435 178.517 13.494 179.873 13.494C182.083 13.494 183.189 14.1227 183.189 15.3783C183.189 15.6804 183.139 15.9615 183.038 16.2262C182.937 16.4894 182.825 16.7217 182.698 16.9231C182.447 16.8727 182.133 16.8224 181.756 16.772C181.379 16.7217 180.978 16.6973 180.551 16.6973C179.545 16.6973 178.629 16.8045 177.801 17.0173C176.972 17.2317 176.269 17.5014 175.691 17.8279V31.5751H175.692Z" fill="#211E1F"/>
<path d="M198.445 16.6956C197.641 16.6956 196.9 16.8272 196.223 17.092C195.546 17.3551 194.961 17.7515 194.472 18.2794C193.983 18.8074 193.593 19.4539 193.304 20.2189C193.015 20.9857 192.87 21.8709 192.87 22.8748C192.87 24.8598 193.385 26.3721 194.415 27.415C195.445 28.4578 196.788 28.9776 198.447 28.9776C199.4 28.9776 200.217 28.8526 200.895 28.6008C201.574 28.3506 202.163 28.0485 202.665 27.696C202.992 27.8974 203.255 28.1362 203.456 28.4124C203.656 28.6885 203.757 29.028 203.757 29.4292C203.757 30.2073 203.248 30.8603 202.232 31.3882C201.215 31.9162 199.878 32.1793 198.219 32.1793C196.839 32.1793 195.576 31.9909 194.433 31.614C193.289 31.2372 192.305 30.6605 191.476 29.8808C190.648 29.1027 190.002 28.1297 189.537 26.9618C189.072 25.7938 188.84 24.4326 188.84 22.8748C188.84 21.3187 189.085 19.9493 189.574 18.7684C190.063 17.5874 190.729 16.6096 191.571 15.8298C192.412 15.0518 193.398 14.4686 194.529 14.0788C195.659 13.6905 196.852 13.4956 198.107 13.4956C198.936 13.4956 199.683 13.5703 200.349 13.7214C201.015 13.8725 201.585 14.0788 202.063 14.3435C202.539 14.6067 202.911 14.9088 203.174 15.2483C203.437 15.5878 203.57 15.9452 203.57 16.322C203.57 16.6745 203.476 16.9945 203.287 17.2821C203.099 17.5712 202.867 17.7905 202.591 17.9416C202.063 17.6151 201.479 17.3259 200.839 17.0758C200.198 16.8207 199.4 16.6956 198.445 16.6956Z" fill="#211E1F"/>
<path d="M214.231 24.8322C214.582 26.2633 215.267 27.3256 216.284 28.016C217.301 28.7063 218.601 29.0523 220.183 29.0523C221.237 29.0523 222.203 28.8899 223.084 28.5634C223.963 28.2369 224.666 27.886 225.194 27.5092C225.897 27.912 226.248 28.4757 226.248 29.205C226.248 29.6322 226.084 30.0286 225.758 30.3924C225.431 30.7563 224.986 31.0698 224.421 31.3346C223.855 31.5977 223.189 31.8057 222.424 31.9567C221.658 32.1078 220.836 32.1825 219.957 32.1825C218.5 32.1825 217.174 31.9811 215.982 31.5799C214.788 31.1786 213.765 30.576 212.912 29.7719C212.058 28.9679 211.398 27.977 210.933 26.7961C210.469 25.6151 210.237 24.2474 210.237 22.6896C210.237 21.1822 210.462 19.8583 210.914 18.7147C211.366 17.5728 211.981 16.6176 212.759 15.8509C213.537 15.0858 214.455 14.5011 215.509 14.0998C216.564 13.6986 217.694 13.4972 218.899 13.4972C220.105 13.4972 221.203 13.6921 222.195 14.0803C223.188 14.4702 224.041 15.0095 224.757 15.6999C225.473 16.3902 226.026 17.2138 226.414 18.1673C226.804 19.1224 226.997 20.1637 226.997 21.2943C226.997 21.9229 226.846 22.381 226.545 22.6685C226.245 22.9576 225.805 23.1525 225.226 23.2516L214.231 24.8322ZM218.901 16.5445C217.52 16.5445 216.37 17.0091 215.454 17.9383C214.536 18.8674 214.054 20.1978 214.004 21.931L223.271 20.612C223.17 19.4814 222.756 18.5214 222.028 17.7303C221.3 16.9393 220.257 16.5445 218.901 16.5445Z" fill="#211E1F"/>
</g>
<defs>
<linearGradient id="paint0_linear_403_3" x1="29.0684" y1="36.2707" x2="42.5676" y2="22.7482" gradientUnits="userSpaceOnUse">
<stop stop-color="#1D899A"/>
<stop offset="1" stop-color="#1CAA68"/>
</linearGradient>
<clipPath id="clip0_403_3">
<rect width="42.5589" height="47.2697" fill="white"/>
</clipPath>
<clipPath id="clip1_403_3">
<rect width="164.624" height="32.3594" fill="white" transform="translate(62.3767 6.33533)"/>
</clipPath>
</defs>
</svg>
