<svg width="227" height="47" viewBox="0 0 227 47" fill="none" xmlns="http://www.w3.org/2000/svg">
<g clip-path="url(#clip0_0_7044)">
<path d="M69.7488 28.3056C69.0717 27.7189 68.7269 26.7566 68.7269 25.3718V18.5125H72.4131V14.4345H68.7269V9.57605H63.7807V25.3542C63.7606 26.5502 63.9578 27.7406 64.3637 28.8748C64.7189 29.8504 65.3038 30.7387 66.0751 31.4742C66.8549 32.1921 67.8138 32.7165 68.8648 32.9998C70.089 33.3126 71.3659 33.4023 72.6262 33.2638V29.0684C71.5975 29.1745 70.5652 28.9008 69.7488 28.3056V28.3056Z" fill="#1F2830"/>
<path d="M84.1988 14.2761C82.967 14.5767 81.8258 15.1389 80.8637 15.919C79.9482 16.6832 79.2337 17.635 78.7761 18.7003C78.2867 19.8638 78.0439 21.1054 78.0614 22.3558V33.2814H83.0077V22.3441C82.9744 21.7261 83.1006 21.1097 83.3756 20.5469C83.6506 19.9842 84.0662 19.4917 84.5875 19.111C85.1582 18.7376 85.8059 18.4795 86.4891 18.3532C87.1723 18.2269 87.8761 18.2352 88.5557 18.3776V14.0472C87.1011 13.8619 85.6221 13.9396 84.1988 14.2761V14.2761Z" fill="#1F2830"/>
<path d="M106.899 14.4344V25.4598C106.915 25.9615 106.821 26.4611 106.623 26.9274C106.425 27.3938 106.126 27.817 105.745 28.1707C105.354 28.5217 104.892 28.7961 104.386 28.9774C103.88 29.1588 103.34 29.2436 102.799 29.2268C102.061 29.2591 101.326 29.1115 100.667 28.7985C100.182 28.5491 99.7701 28.19 99.47 27.7541C99.2107 27.3743 99.03 26.9523 98.9372 26.5101C98.8679 26.1635 98.8281 25.8123 98.8181 25.4598V14.4344H93.8656V25.3131C93.8579 26.4733 94.0701 27.6256 94.4925 28.7164C94.8725 29.7027 95.4682 30.604 96.2415 31.3627C97.0351 32.1205 97.9927 32.7107 99.05 33.0937C100.251 33.5198 101.527 33.7288 102.811 33.7097C104.081 33.7253 105.342 33.508 106.523 33.0702C107.592 32.6791 108.562 32.0829 109.371 31.32C110.18 30.557 110.809 29.6442 111.218 28.6401C111.648 27.5777 111.861 26.4491 111.845 25.3131V14.4344H106.899Z" fill="#1F2830"/>
<path d="M129.931 29.1154C129.151 29.4763 128.293 29.665 127.423 29.6669C126.552 29.6768 125.691 29.4875 124.916 29.1154C124.152 28.7441 123.487 28.2191 122.966 27.578L122.86 27.4489L137.335 21.7514C137.127 20.601 136.703 19.4943 136.081 18.4831C134.936 16.5999 133.094 15.1743 130.903 14.4755C129.796 14.1244 128.636 13.946 127.467 13.9474C126.082 13.9428 124.71 14.2107 123.443 14.7337C122.216 15.2438 121.101 15.9642 120.158 16.8578C119.212 17.7628 118.462 18.8308 117.951 20.0028C117.408 21.2284 117.133 22.5431 117.142 23.8697C117.122 25.7912 117.705 27.676 118.82 29.2898C119.934 30.9037 121.531 32.1754 123.411 32.947C124.685 33.457 126.057 33.7166 127.442 33.7097C129.696 33.7913 131.916 33.1723 133.755 31.9494C135.364 30.8295 136.542 29.2529 137.115 27.4548H131.812C131.385 28.1782 130.727 28.7587 129.931 29.1154ZM121.731 23.6056C121.747 22.8256 121.92 22.0554 122.239 21.3348C122.527 20.6841 122.939 20.0876 123.455 19.5745C123.965 19.0706 124.581 18.6704 125.264 18.3988C125.946 18.1273 126.682 17.9902 127.423 17.9961C128.233 17.984 129.035 18.1382 129.774 18.4479C130.47 18.7465 131.083 19.1901 131.567 19.7447L131.686 19.8796L121.731 23.8051V23.6056Z" fill="#1F2830"/>
<path d="M157.273 6.35132V16.8134L157.041 16.5845C156.271 15.8663 155.352 15.3035 154.34 14.9311C153.329 14.5586 152.247 14.3845 151.16 14.4194C149.873 14.4124 148.601 14.675 147.437 15.188C146.282 15.6998 145.247 16.4196 144.39 17.3062C143.505 18.235 142.805 19.304 142.321 20.463C141.301 22.9303 141.301 25.6649 142.321 28.1321C142.807 29.2969 143.528 30.3628 144.446 31.2713C145.374 32.1699 146.485 32.8861 147.712 33.3778C150.396 34.3946 153.398 34.3946 156.082 33.3778C157.307 32.8854 158.415 32.1693 159.341 31.2713C160.263 30.3689 160.987 29.3065 161.473 28.1438C161.984 26.9193 162.244 25.6153 162.238 24.3005V6.35132H157.273ZM156.846 26.4598C156.579 27.1085 156.186 27.7053 155.687 28.2201C155.197 28.7057 154.617 29.1034 153.975 29.3936C153.322 29.6817 152.609 29.83 151.888 29.8279C151.168 29.8308 150.456 29.6887 149.8 29.4112C149.153 29.1283 148.572 28.7296 148.089 28.2377C147.585 27.7258 147.192 27.1282 146.929 26.4774C146.641 25.7815 146.496 25.0409 146.503 24.2946C146.495 23.5312 146.64 22.7731 146.929 22.0591C147.198 21.4115 147.591 20.815 148.089 20.2988C148.568 19.8026 149.15 19.4033 149.8 19.1252C150.455 18.8445 151.167 18.6992 151.888 18.6992C152.608 18.6992 153.32 18.8445 153.975 19.1252C154.622 19.4203 155.203 19.8286 155.687 20.3281C156.182 20.8453 156.575 21.4415 156.846 22.0884C157.134 22.7886 157.278 23.5329 157.273 24.2829C157.281 25.0274 157.136 25.7665 156.846 26.4598Z" fill="#1F2830"/>
<path d="M186.904 20.0321C186.156 18.2238 184.841 16.6696 183.132 15.5736C181.423 14.4776 179.399 13.8911 177.328 13.8911C175.256 13.8911 173.233 14.4776 171.524 15.5736C169.815 16.6696 168.5 18.2238 167.752 20.0321C167.238 21.2601 166.978 22.5683 166.987 23.8871C166.969 26.4463 167.98 28.9181 169.821 30.811C170.684 31.6937 171.726 32.4076 172.886 32.9116C174.007 33.386 175.219 33.6446 176.448 33.6718C177.678 33.699 178.902 33.4944 180.045 33.07C181.078 32.685 182.003 32.0827 182.747 31.3097L182.992 31.0633V33.2754H187.668V23.8871C187.674 22.5686 187.414 21.2608 186.904 20.0321ZM182.283 26.0229C182.015 26.6712 181.622 27.2678 181.124 27.7832C180.636 28.2704 180.055 28.6684 179.412 28.9568C178.759 29.2448 178.046 29.3931 177.325 29.391C176.604 29.3936 175.892 29.2494 175.237 28.9685C174.587 28.6899 174.005 28.2907 173.526 27.795C172.487 26.7254 171.92 25.3267 171.939 23.8813C171.928 23.1213 172.073 22.3664 172.366 21.6574C172.637 21.0106 173.03 20.4144 173.526 19.8971C174.003 19.3997 174.586 19.0001 175.237 18.7236C175.892 18.4429 176.604 18.2976 177.325 18.2976C178.045 18.2976 178.757 18.4429 179.412 18.7236C180.058 19.0074 180.64 19.406 181.124 19.8971C181.621 20.413 182.014 21.0095 182.283 21.6574C182.571 22.3555 182.715 23.0979 182.71 23.8461C182.719 24.5907 182.574 25.3299 182.283 26.0229Z" fill="#1F2830"/>
<path d="M199.416 28.3056C198.739 27.7189 198.401 26.7566 198.401 25.3718V18.5125H202.087V14.4345H198.401V9.57605H193.448V25.3542C193.428 26.5502 193.625 27.7406 194.031 28.8748C194.387 29.8504 194.971 30.7387 195.743 31.4742C196.524 32.1934 197.485 32.7179 198.539 32.9998C199.763 33.3136 201.04 33.4033 202.3 33.2638V29.0684C201.269 29.1761 200.235 28.9023 199.416 28.3056V28.3056Z" fill="#1F2830"/>
<path d="M226.235 20.0322C225.486 18.2379 224.17 16.6999 222.463 15.6232C220.756 14.5466 218.739 13.9825 216.681 14.0061C215.291 13.9885 213.911 14.2365 212.626 14.7349C211.341 15.2332 210.178 15.9716 209.209 16.9048C208.285 17.8113 207.563 18.8803 207.083 20.0498C206.57 21.2778 206.31 22.5861 206.319 23.9049C206.3 26.464 207.312 28.9359 209.152 30.8287C210.017 31.7101 211.059 32.4238 212.218 32.9293C213.339 33.4038 214.55 33.6624 215.78 33.6896C217.01 33.7168 218.233 33.5122 219.377 33.0878C220.412 32.703 221.338 32.1007 222.085 31.3275L222.317 31.081V33.2931H226.994V23.9049C227.007 22.5805 226.749 21.2661 226.235 20.0322ZM221.615 26.0231C221.349 26.6725 220.956 27.2696 220.455 27.7834C219.969 28.2723 219.388 28.6706 218.744 28.9569C218.091 29.2455 217.378 29.3939 216.656 29.3911C215.938 29.3944 215.227 29.2502 214.575 28.9687C213.923 28.6902 213.339 28.291 212.857 27.7951C212.361 27.2783 211.968 26.682 211.697 26.0348C211.41 25.3429 211.265 24.6062 211.271 23.8638C211.263 23.1041 211.408 22.3497 211.697 21.64C211.969 20.9932 212.362 20.397 212.857 19.8797C213.337 19.3821 213.922 18.9826 214.575 18.7061C215.229 18.4263 215.94 18.2815 216.659 18.2815C217.379 18.2815 218.089 18.4263 218.744 18.7061C219.392 18.9898 219.975 19.3884 220.461 19.8797C220.957 20.3958 221.348 20.9924 221.615 21.64C221.907 22.337 222.054 23.0799 222.047 23.8286C222.061 24.5797 221.914 25.3258 221.615 26.0231V26.0231Z" fill="#1F2830"/>
<path d="M4.84593 2.68738H2.80851C1.25741 2.68738 0 3.86429 0 5.31609V41.678C0 43.1298 1.25741 44.3067 2.80851 44.3067H4.84593C6.39702 44.3067 7.65443 43.1298 7.65443 41.678V5.31609C7.65443 3.86429 6.39702 2.68738 4.84593 2.68738Z" fill="#3371E5"/>
<path d="M23.5338 0H21.4964C19.9453 0 18.6879 1.17692 18.6879 2.62871V44.3713C18.6879 45.8231 19.9453 47 21.4964 47H23.5338C25.0849 47 26.3423 45.8231 26.3423 44.3713V2.62871C26.3423 1.17692 25.0849 0 23.5338 0Z" fill="#FEBD01"/>
<path d="M42.2279 2.68738H40.1905C38.6394 2.68738 37.382 3.86429 37.382 5.31609V41.678C37.382 43.1298 38.6394 44.3067 40.1905 44.3067H42.2279C43.779 44.3067 45.0364 43.1298 45.0364 41.678V5.31609C45.0364 3.86429 43.779 2.68738 42.2279 2.68738Z" fill="#EF5E4F"/>
</g>
<defs>
<clipPath id="clip0_0_7044">
<rect width="227" height="47" fill="white"/>
</clipPath>
</defs>
</svg>
