<svg width="118" height="41" viewBox="0 0 118 41" fill="none" xmlns="http://www.w3.org/2000/svg">
<g clip-path="url(#clip0_0_7169)">
<path d="M19.7311 17.7488V14.7261H0.715894V18.6426H13.5522L0 36.4835V39.5062H20.2403V35.5898H6.17889L19.7311 17.7488Z" fill="#212024"/>
<path d="M87.4616 25.3747L84.0429 24.5576C82.5346 24.197 81.3937 23.7674 80.6549 23.2841C79.9964 22.8545 79.6748 22.1678 79.6748 21.1858C79.6748 20.6258 79.7973 20.154 80.0385 19.7819C80.2912 19.3945 80.6319 19.0684 81.053 18.8114C81.4894 18.5467 81.9871 18.3473 82.5346 18.2245C83.0973 18.0941 83.6601 18.0289 84.1999 18.0289C85.3331 18.0289 86.2978 18.2974 87.075 18.8229C87.8636 19.3599 88.5029 20.1003 88.9776 21.0209L89.1958 21.439L92.9131 18.9763L92.7447 18.6388C91.9216 16.9893 90.7348 15.804 89.2226 15.1174C87.7449 14.4461 86.1217 14.1086 84.4028 14.1086C83.2505 14.1086 82.1135 14.2582 81.0262 14.5574C79.9313 14.8604 78.9321 15.3169 78.0631 15.9229C77.1788 16.5405 76.4629 17.3461 75.9422 18.3204C75.4177 19.2986 75.1536 20.4493 75.1536 21.7421C75.1536 22.9427 75.4139 23.9746 75.9307 24.8031C76.4361 25.6125 77.0486 26.2838 77.753 26.7901C78.4459 27.2888 79.1695 27.6724 79.9045 27.9217C80.6051 28.1634 81.1755 28.336 81.6043 28.4434L84.866 29.2106C86.0758 29.506 87.1171 29.9126 87.9631 30.4151C88.7173 30.8677 89.0848 31.5927 89.0848 32.6323C89.0848 33.2383 88.947 33.7485 88.6675 34.1935C88.3804 34.6461 87.9976 35.0259 87.5267 35.3136C87.0405 35.6128 86.4777 35.8353 85.8422 35.9772C85.1953 36.123 84.5406 36.1958 83.8936 36.1958C82.5499 36.1958 81.3823 35.889 80.4175 35.2867C79.4413 34.6768 78.6182 33.8444 77.9751 32.8164L77.7415 32.4405L74.1238 34.9223L74.3535 35.2714C75.5173 37.0359 76.9414 38.3018 78.5952 39.0306C80.2261 39.7517 82.0101 40.1162 83.8936 40.1162C85.0766 40.1162 86.2634 39.9742 87.4118 39.6942C88.5795 39.4104 89.6323 38.95 90.5357 38.3286C91.4507 37.6995 92.2011 36.8786 92.7562 35.8851C93.3189 34.8878 93.6022 33.691 93.6022 32.3292C93.6022 30.5187 93.005 28.9843 91.8259 27.7645C90.6697 26.5715 89.1997 25.7659 87.4616 25.3747Z" fill="#212024"/>
<path d="M115.695 16.6825C114.156 14.9793 111.764 14.1124 108.594 14.1124C107.778 14.1124 106.94 14.2275 106.105 14.4615C105.278 14.6916 104.482 15.0138 103.743 15.4204C103.001 15.827 102.319 16.3219 101.718 16.8896C101.423 17.1696 101.148 17.465 100.903 17.7719V0H96.6877V39.5062H100.903V26.8093C100.903 24.7111 101.228 23.0578 101.871 21.9032C102.518 20.737 103.257 19.8586 104.069 19.2832C104.88 18.7078 105.654 18.3549 106.373 18.2283C107.365 18.0557 107.648 18.0289 107.729 18.0289C110.049 18.0289 111.645 18.6771 112.476 19.9583C113.345 21.2971 113.785 23.2726 113.785 25.8388V39.5062H118V23.894C118 20.8023 117.223 18.3741 115.695 16.6825Z" fill="#212024"/>
<path d="M49.6953 34.4697C49.9556 34.0592 50.3346 33.8176 50.8247 33.7485C51.3147 33.6795 51.7281 33.7984 52.065 34.1053C53.1906 34.9837 54.4194 35.6013 55.7555 35.958C57.0916 36.3148 58.4124 36.4183 59.714 36.261C61.0156 36.1038 62.2637 35.7048 63.4619 35.0642C64.6563 34.4236 65.69 33.5375 66.5667 32.4098C67.4434 31.282 68.0521 30.0699 68.3928 28.7695C68.7335 27.4691 68.8177 26.1687 68.6416 24.8645C68.4655 23.5603 68.0597 22.3098 67.4204 21.113C66.7772 19.9161 65.8967 18.8804 64.7712 18.002C63.6495 17.1236 62.4359 16.5137 61.1381 16.1723C59.8403 15.8309 58.5425 15.7465 57.2409 15.9191C55.9393 16.0956 54.6836 16.5137 53.4738 17.1773C52.2603 17.8409 51.219 18.7347 50.3423 19.8624L41.9353 29.9356C41.6673 30.3077 41.2807 30.5302 40.7715 30.6031C40.2624 30.6759 39.8374 30.557 39.5005 30.2463C39.0909 29.9433 38.8535 29.5482 38.8038 29.0572C38.7502 28.5662 38.8612 28.1327 39.1292 27.7606L47.5936 17.6798C48.7765 16.1761 50.1585 14.9793 51.7473 14.0855C53.336 13.1918 55.009 12.6432 56.7624 12.4399C58.5196 12.2366 60.2882 12.367 62.0799 12.8312C63.8677 13.2953 65.5483 14.097 67.1179 15.2325C68.5383 16.3871 69.6829 17.7604 70.5596 19.3523C71.4324 20.948 71.9722 22.6243 72.1751 24.3812C72.378 26.1419 72.2594 27.9064 71.8115 29.6748C71.3674 31.4431 70.5519 33.0811 69.3728 34.5847C68.1899 36.0884 66.8155 37.2776 65.2421 38.1483C63.6686 39.0229 62.0072 39.56 60.25 39.7633C58.4966 39.9666 56.7317 39.8361 54.9631 39.3682C53.1944 38.904 51.5406 38.0601 49.9977 36.8441C49.5843 36.5411 49.3508 36.1575 49.301 35.6818C49.2551 35.2138 49.3852 34.8072 49.6953 34.4697Z" fill="#E83DA3"/>
<path d="M44.0064 17.5839C43.7461 17.9943 43.3671 18.236 42.8771 18.3051C42.3909 18.3741 41.9736 18.2552 41.6367 17.9445C40.5112 17.0661 39.2823 16.4485 37.9462 16.0917C36.6101 15.735 35.2894 15.6314 33.9878 15.7887C32.6861 15.946 31.4381 16.3449 30.2398 16.9855C29.0454 17.6261 28.0118 18.5122 27.1351 19.64C26.2584 20.7677 25.6497 21.9799 25.309 23.2803C24.9683 24.5806 24.884 25.881 25.0601 27.1852C25.2362 28.4895 25.642 29.74 26.2814 30.9368C26.9245 32.1336 27.805 33.1693 28.9306 34.0477C30.0561 34.9261 31.2658 35.5361 32.5636 35.8775C33.8614 36.2189 35.1592 36.3032 36.4608 36.1306C37.7625 35.9542 39.0182 35.5361 40.2279 34.8724C41.4415 34.2088 42.4828 33.3151 43.3595 32.1873L51.7664 22.1141C52.0306 21.7421 52.4211 21.5196 52.9264 21.4467C53.4356 21.3738 53.8605 21.4927 54.1974 21.8034C54.6109 22.1065 54.8444 22.5016 54.8942 22.9926C54.9478 23.4836 54.8367 23.917 54.5687 24.2891L46.1044 34.3699C44.9214 35.8736 43.5394 37.0704 41.9506 37.9642C40.3619 38.858 38.6889 39.4065 36.9356 39.6098C35.1784 39.8131 33.4058 39.6827 31.618 39.2186C29.8302 38.7544 28.1496 37.9527 26.58 36.8173C25.1597 35.6626 24.015 34.2894 23.1383 32.6975C22.2655 31.1017 21.7257 29.4254 21.5228 27.6686C21.3199 25.9079 21.4386 24.1433 21.8865 22.375C22.3306 20.6066 23.146 18.9687 24.3251 17.465C25.508 15.9613 26.8824 14.7722 28.4558 13.9014C30.0255 13.0268 31.6908 12.4898 33.448 12.2865C35.2052 12.0832 36.9662 12.2136 38.7349 12.6816C40.5035 13.1457 42.1574 13.9896 43.7002 15.2056C44.1136 15.5087 44.3433 15.8923 44.3931 16.3679C44.4429 16.8359 44.3165 17.2425 44.0064 17.5839Z" fill="#E83DA3"/>
</g>
<defs>
<clipPath id="clip0_0_7169">
<rect width="118" height="40.12" fill="white"/>
</clipPath>
</defs>
</svg>
